<?xml version="1.0" encoding="utf-8" standalone="no"?>
<!DOCTYPE svg PUBLIC "-//W3C//DTD SVG 1.1//EN"
  "http://www.w3.org/Graphics/SVG/1.1/DTD/svg11.dtd">
<svg xmlns:xlink="http://www.w3.org/1999/xlink" width="750.96pt" height="435.744pt" viewBox="0 0 750.96 435.744" xmlns="http://www.w3.org/2000/svg" version="1.1">
 <metadata>
  <rdf:RDF xmlns:dc="http://purl.org/dc/elements/1.1/" xmlns:cc="http://creativecommons.org/ns#" xmlns:rdf="http://www.w3.org/1999/02/22-rdf-syntax-ns#">
   <cc:Work>
    <dc:type rdf:resource="http://purl.org/dc/dcmitype/StillImage"/>
    <dc:date>2026-04-07T17:56:10.729886</dc:date>
    <dc:format>image/svg+xml</dc:format>
    <dc:creator>
     <cc:Agent>
      <dc:title>Matplotlib v3.9.4, https://matplotlib.org/</dc:title>
     </cc:Agent>
    </dc:creator>
   </cc:Work>
  </rdf:RDF>
 </metadata>
 <defs>
  <style type="text/css">*{stroke-linejoin: round; stroke-linecap: butt}</style>
 </defs>
 <g id="figure_1">
  <g id="patch_1">
   <path d="M 0 435.744 
L 750.96 435.744 
L 750.96 0 
L 0 0 
z
" style="fill: #ffffff"/>
  </g>
  <g id="axes_1">
   <g id="patch_2">
    <path d="M 62.442 215.76528 
L 334.9692 215.76528 
Q 357.066 215.76528 357.066 203.12496 
L 357.066 97.78896 
Q 357.066 85.14864 334.9692 85.14864 
L 62.442 85.14864 
Q 40.3452 85.14864 40.3452 97.78896 
L 40.3452 203.12496 
Q 40.3452 215.76528 62.442 215.76528 
z
" clip-path="url(#pb30b60f7bb)" style="fill: #f8fbff; stroke: #2b6cb0; stroke-width: 1.4; stroke-linejoin: miter"/>
   </g>
   <g id="patch_3">
    <path d="M 415.9908 215.76528 
L 688.518 215.76528 
Q 710.6148 215.76528 710.6148 203.12496 
L 710.6148 97.78896 
Q 710.6148 85.14864 688.518 85.14864 
L 415.9908 85.14864 
Q 393.894 85.14864 393.894 97.78896 
L 393.894 203.12496 
Q 393.894 215.76528 415.9908 215.76528 
z
" clip-path="url(#pb30b60f7bb)" style="fill: #f8fbff; stroke: #2b6cb0; stroke-width: 1.4; stroke-linejoin: miter"/>
   </g>
   <g id="patch_4">
    <path d="M 62.442 375.876 
L 334.9692 375.876 
Q 357.066 375.876 357.066 363.23568 
L 357.066 257.89968 
Q 357.066 245.25936 334.9692 245.25936 
L 62.442 245.25936 
Q 40.3452 245.25936 40.3452 257.89968 
L 40.3452 363.23568 
Q 40.3452 375.876 62.442 375.876 
z
" clip-path="url(#pb30b60f7bb)" style="fill: #f8fbff; stroke: #2b6cb0; stroke-width: 1.4; stroke-linejoin: miter"/>
   </g>
   <g id="patch_5">
    <path d="M 415.9908 375.876 
L 688.518 375.876 
Q 710.6148 375.876 710.6148 363.23568 
L 710.6148 257.89968 
Q 710.6148 245.25936 688.518 245.25936 
L 415.9908 245.25936 
Q 393.894 245.25936 393.894 257.89968 
L 393.894 363.23568 
Q 393.894 375.876 415.9908 375.876 
z
" clip-path="url(#pb30b60f7bb)" style="fill: #f8fbff; stroke: #2b6cb0; stroke-width: 1.4; stroke-linejoin: miter"/>
   </g>
   <g id="patch_6">
    <path d="M 348.020842 150.45696 
Q 375.482784 150.45696 401.155871 150.45696 
" clip-path="url(#pb30b60f7bb)" style="fill: none; stroke: #2b6cb0; stroke-width: 1.6; stroke-linecap: round"/>
    <path d="M 395.955871 147.85696 
L 401.155871 150.45696 
L 395.955871 153.05696 
z
" clip-path="url(#pb30b60f7bb)" style="fill: #2b6cb0; stroke: #2b6cb0; stroke-width: 1.6; stroke-linecap: round"/>
   </g>
   <g id="patch_7">
    <path d="M 198.7056 211.443315 
Q 198.7056 230.509482 198.7056 247.786795 
" clip-path="url(#pb30b60f7bb)" style="fill: none; stroke: #2b6cb0; stroke-width: 1.6; stroke-linecap: round"/>
    <path d="M 201.3056 242.586795 
L 198.7056 247.786795 
L 196.1056 242.586795 
z
" clip-path="url(#pb30b60f7bb)" style="fill: #2b6cb0; stroke: #2b6cb0; stroke-width: 1.6; stroke-linecap: round"/>
   </g>
   <g id="patch_8">
    <path d="M 552.2544 211.443315 
Q 552.2544 230.509482 552.2544 247.786795 
" clip-path="url(#pb30b60f7bb)" style="fill: none; stroke: #2b6cb0; stroke-width: 1.6; stroke-linecap: round"/>
    <path d="M 554.8544 242.586795 
L 552.2544 247.786795 
L 549.6544 242.586795 
z
" clip-path="url(#pb30b60f7bb)" style="fill: #2b6cb0; stroke: #2b6cb0; stroke-width: 1.6; stroke-linecap: round"/>
   </g>
   <g id="patch_9">
    <path d="M 348.020842 310.56768 
Q 375.482784 310.56768 401.155871 310.56768 
" clip-path="url(#pb30b60f7bb)" style="fill: none; stroke: #2b6cb0; stroke-width: 1.6; stroke-linecap: round"/>
    <path d="M 395.955871 307.96768 
L 401.155871 310.56768 
L 395.955871 313.16768 
z
" clip-path="url(#pb30b60f7bb)" style="fill: #2b6cb0; stroke: #2b6cb0; stroke-width: 1.6; stroke-linecap: round"/>
   </g>
   <g id="text_1">
    <!-- UI Layer -->
    <g style="fill: #1a365d" transform="translate(66.1248 116.74944) scale(0.125 -0.125)">
     <defs>
      <path id="DejaVuSans-Bold-55" d="M 588 4666 
L 1791 4666 
L 1791 1869 
Q 1791 1291 1980 1042 
Q 2169 794 2597 794 
Q 3028 794 3217 1042 
Q 3406 1291 3406 1869 
L 3406 4666 
L 4609 4666 
L 4609 1869 
Q 4609 878 4112 393 
Q 3616 -91 2597 -91 
Q 1581 -91 1084 393 
Q 588 878 588 1869 
L 588 4666 
z
" transform="scale(0.015625)"/>
      <path id="DejaVuSans-Bold-49" d="M 588 4666 
L 1791 4666 
L 1791 0 
L 588 0 
L 588 4666 
z
" transform="scale(0.015625)"/>
      <path id="DejaVuSans-Bold-20" transform="scale(0.015625)"/>
      <path id="DejaVuSans-Bold-4c" d="M 588 4666 
L 1791 4666 
L 1791 909 
L 3903 909 
L 3903 0 
L 588 0 
L 588 4666 
z
" transform="scale(0.015625)"/>
      <path id="DejaVuSans-Bold-61" d="M 2106 1575 
Q 1756 1575 1579 1456 
Q 1403 1338 1403 1106 
Q 1403 894 1545 773 
Q 1688 653 1941 653 
Q 2256 653 2472 879 
Q 2688 1106 2688 1447 
L 2688 1575 
L 2106 1575 
z
M 3816 1997 
L 3816 0 
L 2688 0 
L 2688 519 
Q 2463 200 2181 54 
Q 1900 -91 1497 -91 
Q 953 -91 614 226 
Q 275 544 275 1050 
Q 275 1666 698 1953 
Q 1122 2241 2028 2241 
L 2688 2241 
L 2688 2328 
Q 2688 2594 2478 2717 
Q 2269 2841 1825 2841 
Q 1466 2841 1156 2769 
Q 847 2697 581 2553 
L 581 3406 
Q 941 3494 1303 3539 
Q 1666 3584 2028 3584 
Q 2975 3584 3395 3211 
Q 3816 2838 3816 1997 
z
" transform="scale(0.015625)"/>
      <path id="DejaVuSans-Bold-79" d="M 78 3500 
L 1197 3500 
L 2138 1125 
L 2938 3500 
L 4056 3500 
L 2584 -331 
Q 2363 -916 2067 -1148 
Q 1772 -1381 1288 -1381 
L 641 -1381 
L 641 -647 
L 991 -647 
Q 1275 -647 1404 -556 
Q 1534 -466 1606 -231 
L 1638 -134 
L 78 3500 
z
" transform="scale(0.015625)"/>
      <path id="DejaVuSans-Bold-65" d="M 4031 1759 
L 4031 1441 
L 1416 1441 
Q 1456 1047 1700 850 
Q 1944 653 2381 653 
Q 2734 653 3104 758 
Q 3475 863 3866 1075 
L 3866 213 
Q 3469 63 3072 -14 
Q 2675 -91 2278 -91 
Q 1328 -91 801 392 
Q 275 875 275 1747 
Q 275 2603 792 3093 
Q 1309 3584 2216 3584 
Q 3041 3584 3536 3087 
Q 4031 2591 4031 1759 
z
M 2881 2131 
Q 2881 2450 2695 2645 
Q 2509 2841 2209 2841 
Q 1884 2841 1681 2658 
Q 1478 2475 1428 2131 
L 2881 2131 
z
" transform="scale(0.015625)"/>
      <path id="DejaVuSans-Bold-72" d="M 3138 2547 
Q 2991 2616 2845 2648 
Q 2700 2681 2553 2681 
Q 2122 2681 1889 2404 
Q 1656 2128 1656 1613 
L 1656 0 
L 538 0 
L 538 3500 
L 1656 3500 
L 1656 2925 
Q 1872 3269 2151 3426 
Q 2431 3584 2822 3584 
Q 2878 3584 2943 3579 
Q 3009 3575 3134 3559 
L 3138 2547 
z
" transform="scale(0.015625)"/>
     </defs>
     <use xlink:href="#DejaVuSans-Bold-55"/>
     <use xlink:href="#DejaVuSans-Bold-49" x="81.201172"/>
     <use xlink:href="#DejaVuSans-Bold-20" x="118.408203"/>
     <use xlink:href="#DejaVuSans-Bold-4c" x="153.222656"/>
     <use xlink:href="#DejaVuSans-Bold-61" x="216.943359"/>
     <use xlink:href="#DejaVuSans-Bold-79" x="281.298828"/>
     <use xlink:href="#DejaVuSans-Bold-65" x="346.484375"/>
     <use xlink:href="#DejaVuSans-Bold-72" x="414.306641"/>
    </g>
   </g>
   <g id="text_2">
    <!-- - Task controls + action builder -->
    <g style="fill: #2d3748" transform="translate(73.4904 142.03008) scale(0.1 -0.1)">
     <defs>
      <path id="DejaVuSans-2d" d="M 313 2009 
L 1997 2009 
L 1997 1497 
L 313 1497 
L 313 2009 
z
" transform="scale(0.015625)"/>
      <path id="DejaVuSans-20" transform="scale(0.015625)"/>
      <path id="DejaVuSans-54" d="M -19 4666 
L 3928 4666 
L 3928 4134 
L 2272 4134 
L 2272 0 
L 1638 0 
L 1638 4134 
L -19 4134 
L -19 4666 
z
" transform="scale(0.015625)"/>
      <path id="DejaVuSans-61" d="M 2194 1759 
Q 1497 1759 1228 1600 
Q 959 1441 959 1056 
Q 959 750 1161 570 
Q 1363 391 1709 391 
Q 2188 391 2477 730 
Q 2766 1069 2766 1631 
L 2766 1759 
L 2194 1759 
z
M 3341 1997 
L 3341 0 
L 2766 0 
L 2766 531 
Q 2569 213 2275 61 
Q 1981 -91 1556 -91 
Q 1019 -91 701 211 
Q 384 513 384 1019 
Q 384 1609 779 1909 
Q 1175 2209 1959 2209 
L 2766 2209 
L 2766 2266 
Q 2766 2663 2505 2880 
Q 2244 3097 1772 3097 
Q 1472 3097 1187 3025 
Q 903 2953 641 2809 
L 641 3341 
Q 956 3463 1253 3523 
Q 1550 3584 1831 3584 
Q 2591 3584 2966 3190 
Q 3341 2797 3341 1997 
z
" transform="scale(0.015625)"/>
      <path id="DejaVuSans-73" d="M 2834 3397 
L 2834 2853 
Q 2591 2978 2328 3040 
Q 2066 3103 1784 3103 
Q 1356 3103 1142 2972 
Q 928 2841 928 2578 
Q 928 2378 1081 2264 
Q 1234 2150 1697 2047 
L 1894 2003 
Q 2506 1872 2764 1633 
Q 3022 1394 3022 966 
Q 3022 478 2636 193 
Q 2250 -91 1575 -91 
Q 1294 -91 989 -36 
Q 684 19 347 128 
L 347 722 
Q 666 556 975 473 
Q 1284 391 1588 391 
Q 1994 391 2212 530 
Q 2431 669 2431 922 
Q 2431 1156 2273 1281 
Q 2116 1406 1581 1522 
L 1381 1569 
Q 847 1681 609 1914 
Q 372 2147 372 2553 
Q 372 3047 722 3315 
Q 1072 3584 1716 3584 
Q 2034 3584 2315 3537 
Q 2597 3491 2834 3397 
z
" transform="scale(0.015625)"/>
      <path id="DejaVuSans-6b" d="M 581 4863 
L 1159 4863 
L 1159 1991 
L 2875 3500 
L 3609 3500 
L 1753 1863 
L 3688 0 
L 2938 0 
L 1159 1709 
L 1159 0 
L 581 0 
L 581 4863 
z
" transform="scale(0.015625)"/>
      <path id="DejaVuSans-63" d="M 3122 3366 
L 3122 2828 
Q 2878 2963 2633 3030 
Q 2388 3097 2138 3097 
Q 1578 3097 1268 2742 
Q 959 2388 959 1747 
Q 959 1106 1268 751 
Q 1578 397 2138 397 
Q 2388 397 2633 464 
Q 2878 531 3122 666 
L 3122 134 
Q 2881 22 2623 -34 
Q 2366 -91 2075 -91 
Q 1284 -91 818 406 
Q 353 903 353 1747 
Q 353 2603 823 3093 
Q 1294 3584 2113 3584 
Q 2378 3584 2631 3529 
Q 2884 3475 3122 3366 
z
" transform="scale(0.015625)"/>
      <path id="DejaVuSans-6f" d="M 1959 3097 
Q 1497 3097 1228 2736 
Q 959 2375 959 1747 
Q 959 1119 1226 758 
Q 1494 397 1959 397 
Q 2419 397 2687 759 
Q 2956 1122 2956 1747 
Q 2956 2369 2687 2733 
Q 2419 3097 1959 3097 
z
M 1959 3584 
Q 2709 3584 3137 3096 
Q 3566 2609 3566 1747 
Q 3566 888 3137 398 
Q 2709 -91 1959 -91 
Q 1206 -91 779 398 
Q 353 888 353 1747 
Q 353 2609 779 3096 
Q 1206 3584 1959 3584 
z
" transform="scale(0.015625)"/>
      <path id="DejaVuSans-6e" d="M 3513 2113 
L 3513 0 
L 2938 0 
L 2938 2094 
Q 2938 2591 2744 2837 
Q 2550 3084 2163 3084 
Q 1697 3084 1428 2787 
Q 1159 2491 1159 1978 
L 1159 0 
L 581 0 
L 581 3500 
L 1159 3500 
L 1159 2956 
Q 1366 3272 1645 3428 
Q 1925 3584 2291 3584 
Q 2894 3584 3203 3211 
Q 3513 2838 3513 2113 
z
" transform="scale(0.015625)"/>
      <path id="DejaVuSans-74" d="M 1172 4494 
L 1172 3500 
L 2356 3500 
L 2356 3053 
L 1172 3053 
L 1172 1153 
Q 1172 725 1289 603 
Q 1406 481 1766 481 
L 2356 481 
L 2356 0 
L 1766 0 
Q 1100 0 847 248 
Q 594 497 594 1153 
L 594 3053 
L 172 3053 
L 172 3500 
L 594 3500 
L 594 4494 
L 1172 4494 
z
" transform="scale(0.015625)"/>
      <path id="DejaVuSans-72" d="M 2631 2963 
Q 2534 3019 2420 3045 
Q 2306 3072 2169 3072 
Q 1681 3072 1420 2755 
Q 1159 2438 1159 1844 
L 1159 0 
L 581 0 
L 581 3500 
L 1159 3500 
L 1159 2956 
Q 1341 3275 1631 3429 
Q 1922 3584 2338 3584 
Q 2397 3584 2469 3576 
Q 2541 3569 2628 3553 
L 2631 2963 
z
" transform="scale(0.015625)"/>
      <path id="DejaVuSans-6c" d="M 603 4863 
L 1178 4863 
L 1178 0 
L 603 0 
L 603 4863 
z
" transform="scale(0.015625)"/>
      <path id="DejaVuSans-2b" d="M 2944 4013 
L 2944 2272 
L 4684 2272 
L 4684 1741 
L 2944 1741 
L 2944 0 
L 2419 0 
L 2419 1741 
L 678 1741 
L 678 2272 
L 2419 2272 
L 2419 4013 
L 2944 4013 
z
" transform="scale(0.015625)"/>
      <path id="DejaVuSans-69" d="M 603 3500 
L 1178 3500 
L 1178 0 
L 603 0 
L 603 3500 
z
M 603 4863 
L 1178 4863 
L 1178 4134 
L 603 4134 
L 603 4863 
z
" transform="scale(0.015625)"/>
      <path id="DejaVuSans-62" d="M 3116 1747 
Q 3116 2381 2855 2742 
Q 2594 3103 2138 3103 
Q 1681 3103 1420 2742 
Q 1159 2381 1159 1747 
Q 1159 1113 1420 752 
Q 1681 391 2138 391 
Q 2594 391 2855 752 
Q 3116 1113 3116 1747 
z
M 1159 2969 
Q 1341 3281 1617 3432 
Q 1894 3584 2278 3584 
Q 2916 3584 3314 3078 
Q 3713 2572 3713 1747 
Q 3713 922 3314 415 
Q 2916 -91 2278 -91 
Q 1894 -91 1617 61 
Q 1341 213 1159 525 
L 1159 0 
L 581 0 
L 581 4863 
L 1159 4863 
L 1159 2969 
z
" transform="scale(0.015625)"/>
      <path id="DejaVuSans-75" d="M 544 1381 
L 544 3500 
L 1119 3500 
L 1119 1403 
Q 1119 906 1312 657 
Q 1506 409 1894 409 
Q 2359 409 2629 706 
Q 2900 1003 2900 1516 
L 2900 3500 
L 3475 3500 
L 3475 0 
L 2900 0 
L 2900 538 
Q 2691 219 2414 64 
Q 2138 -91 1772 -91 
Q 1169 -91 856 284 
Q 544 659 544 1381 
z
M 1991 3584 
L 1991 3584 
z
" transform="scale(0.015625)"/>
      <path id="DejaVuSans-64" d="M 2906 2969 
L 2906 4863 
L 3481 4863 
L 3481 0 
L 2906 0 
L 2906 525 
Q 2725 213 2448 61 
Q 2172 -91 1784 -91 
Q 1150 -91 751 415 
Q 353 922 353 1747 
Q 353 2572 751 3078 
Q 1150 3584 1784 3584 
Q 2172 3584 2448 3432 
Q 2725 3281 2906 2969 
z
M 947 1747 
Q 947 1113 1208 752 
Q 1469 391 1925 391 
Q 2381 391 2643 752 
Q 2906 1113 2906 1747 
Q 2906 2381 2643 2742 
Q 2381 3103 1925 3103 
Q 1469 3103 1208 2742 
Q 947 2381 947 1747 
z
" transform="scale(0.015625)"/>
      <path id="DejaVuSans-65" d="M 3597 1894 
L 3597 1613 
L 953 1613 
Q 991 1019 1311 708 
Q 1631 397 2203 397 
Q 2534 397 2845 478 
Q 3156 559 3463 722 
L 3463 178 
Q 3153 47 2828 -22 
Q 2503 -91 2169 -91 
Q 1331 -91 842 396 
Q 353 884 353 1716 
Q 353 2575 817 3079 
Q 1281 3584 2069 3584 
Q 2775 3584 3186 3129 
Q 3597 2675 3597 1894 
z
M 3022 2063 
Q 3016 2534 2758 2815 
Q 2500 3097 2075 3097 
Q 1594 3097 1305 2825 
Q 1016 2553 972 2059 
L 3022 2063 
z
" transform="scale(0.015625)"/>
     </defs>
     <use xlink:href="#DejaVuSans-2d"/>
     <use xlink:href="#DejaVuSans-20" x="36.083984"/>
     <use xlink:href="#DejaVuSans-54" x="67.871094"/>
     <use xlink:href="#DejaVuSans-61" x="112.455078"/>
     <use xlink:href="#DejaVuSans-73" x="173.734375"/>
     <use xlink:href="#DejaVuSans-6b" x="225.833984"/>
     <use xlink:href="#DejaVuSans-20" x="283.744141"/>
     <use xlink:href="#DejaVuSans-63" x="315.53125"/>
     <use xlink:href="#DejaVuSans-6f" x="370.511719"/>
     <use xlink:href="#DejaVuSans-6e" x="431.693359"/>
     <use xlink:href="#DejaVuSans-74" x="495.072266"/>
     <use xlink:href="#DejaVuSans-72" x="534.28125"/>
     <use xlink:href="#DejaVuSans-6f" x="573.144531"/>
     <use xlink:href="#DejaVuSans-6c" x="634.326172"/>
     <use xlink:href="#DejaVuSans-73" x="662.109375"/>
     <use xlink:href="#DejaVuSans-20" x="714.208984"/>
     <use xlink:href="#DejaVuSans-2b" x="745.996094"/>
     <use xlink:href="#DejaVuSans-20" x="829.785156"/>
     <use xlink:href="#DejaVuSans-61" x="861.572266"/>
     <use xlink:href="#DejaVuSans-63" x="922.851562"/>
     <use xlink:href="#DejaVuSans-74" x="977.832031"/>
     <use xlink:href="#DejaVuSans-69" x="1017.041016"/>
     <use xlink:href="#DejaVuSans-6f" x="1044.824219"/>
     <use xlink:href="#DejaVuSans-6e" x="1106.005859"/>
     <use xlink:href="#DejaVuSans-20" x="1169.384766"/>
     <use xlink:href="#DejaVuSans-62" x="1201.171875"/>
     <use xlink:href="#DejaVuSans-75" x="1264.648438"/>
     <use xlink:href="#DejaVuSans-69" x="1328.027344"/>
     <use xlink:href="#DejaVuSans-6c" x="1355.810547"/>
     <use xlink:href="#DejaVuSans-64" x="1383.59375"/>
     <use xlink:href="#DejaVuSans-65" x="1447.070312"/>
     <use xlink:href="#DejaVuSans-72" x="1508.59375"/>
    </g>
   </g>
   <g id="text_3">
    <!-- - Timeline, metrics, and outcomes -->
    <g style="fill: #2d3748" transform="translate(73.4904 173.63088) scale(0.1 -0.1)">
     <defs>
      <path id="DejaVuSans-6d" d="M 3328 2828 
Q 3544 3216 3844 3400 
Q 4144 3584 4550 3584 
Q 5097 3584 5394 3201 
Q 5691 2819 5691 2113 
L 5691 0 
L 5113 0 
L 5113 2094 
Q 5113 2597 4934 2840 
Q 4756 3084 4391 3084 
Q 3944 3084 3684 2787 
Q 3425 2491 3425 1978 
L 3425 0 
L 2847 0 
L 2847 2094 
Q 2847 2600 2669 2842 
Q 2491 3084 2119 3084 
Q 1678 3084 1418 2786 
Q 1159 2488 1159 1978 
L 1159 0 
L 581 0 
L 581 3500 
L 1159 3500 
L 1159 2956 
Q 1356 3278 1631 3431 
Q 1906 3584 2284 3584 
Q 2666 3584 2933 3390 
Q 3200 3197 3328 2828 
z
" transform="scale(0.015625)"/>
      <path id="DejaVuSans-2c" d="M 750 794 
L 1409 794 
L 1409 256 
L 897 -744 
L 494 -744 
L 750 256 
L 750 794 
z
" transform="scale(0.015625)"/>
     </defs>
     <use xlink:href="#DejaVuSans-2d"/>
     <use xlink:href="#DejaVuSans-20" x="36.083984"/>
     <use xlink:href="#DejaVuSans-54" x="67.871094"/>
     <use xlink:href="#DejaVuSans-69" x="125.830078"/>
     <use xlink:href="#DejaVuSans-6d" x="153.613281"/>
     <use xlink:href="#DejaVuSans-65" x="251.025391"/>
     <use xlink:href="#DejaVuSans-6c" x="312.548828"/>
     <use xlink:href="#DejaVuSans-69" x="340.332031"/>
     <use xlink:href="#DejaVuSans-6e" x="368.115234"/>
     <use xlink:href="#DejaVuSans-65" x="431.494141"/>
     <use xlink:href="#DejaVuSans-2c" x="493.017578"/>
     <use xlink:href="#DejaVuSans-20" x="524.804688"/>
     <use xlink:href="#DejaVuSans-6d" x="556.591797"/>
     <use xlink:href="#DejaVuSans-65" x="654.003906"/>
     <use xlink:href="#DejaVuSans-74" x="715.527344"/>
     <use xlink:href="#DejaVuSans-72" x="754.736328"/>
     <use xlink:href="#DejaVuSans-69" x="795.849609"/>
     <use xlink:href="#DejaVuSans-63" x="823.632812"/>
     <use xlink:href="#DejaVuSans-73" x="878.613281"/>
     <use xlink:href="#DejaVuSans-2c" x="930.712891"/>
     <use xlink:href="#DejaVuSans-20" x="962.5"/>
     <use xlink:href="#DejaVuSans-61" x="994.287109"/>
     <use xlink:href="#DejaVuSans-6e" x="1055.566406"/>
     <use xlink:href="#DejaVuSans-64" x="1118.945312"/>
     <use xlink:href="#DejaVuSans-20" x="1182.421875"/>
     <use xlink:href="#DejaVuSans-6f" x="1214.208984"/>
     <use xlink:href="#DejaVuSans-75" x="1275.390625"/>
     <use xlink:href="#DejaVuSans-74" x="1338.769531"/>
     <use xlink:href="#DejaVuSans-63" x="1377.978516"/>
     <use xlink:href="#DejaVuSans-6f" x="1432.958984"/>
     <use xlink:href="#DejaVuSans-6d" x="1494.140625"/>
     <use xlink:href="#DejaVuSans-65" x="1591.552734"/>
     <use xlink:href="#DejaVuSans-73" x="1653.076172"/>
    </g>
   </g>
   <g id="text_4">
    <!-- - Epoch trainer and logs -->
    <g style="fill: #2d3748" transform="translate(73.4904 205.23168) scale(0.1 -0.1)">
     <defs>
      <path id="DejaVuSans-45" d="M 628 4666 
L 3578 4666 
L 3578 4134 
L 1259 4134 
L 1259 2753 
L 3481 2753 
L 3481 2222 
L 1259 2222 
L 1259 531 
L 3634 531 
L 3634 0 
L 628 0 
L 628 4666 
z
" transform="scale(0.015625)"/>
      <path id="DejaVuSans-70" d="M 1159 525 
L 1159 -1331 
L 581 -1331 
L 581 3500 
L 1159 3500 
L 1159 2969 
Q 1341 3281 1617 3432 
Q 1894 3584 2278 3584 
Q 2916 3584 3314 3078 
Q 3713 2572 3713 1747 
Q 3713 922 3314 415 
Q 2916 -91 2278 -91 
Q 1894 -91 1617 61 
Q 1341 213 1159 525 
z
M 3116 1747 
Q 3116 2381 2855 2742 
Q 2594 3103 2138 3103 
Q 1681 3103 1420 2742 
Q 1159 2381 1159 1747 
Q 1159 1113 1420 752 
Q 1681 391 2138 391 
Q 2594 391 2855 752 
Q 3116 1113 3116 1747 
z
" transform="scale(0.015625)"/>
      <path id="DejaVuSans-68" d="M 3513 2113 
L 3513 0 
L 2938 0 
L 2938 2094 
Q 2938 2591 2744 2837 
Q 2550 3084 2163 3084 
Q 1697 3084 1428 2787 
Q 1159 2491 1159 1978 
L 1159 0 
L 581 0 
L 581 4863 
L 1159 4863 
L 1159 2956 
Q 1366 3272 1645 3428 
Q 1925 3584 2291 3584 
Q 2894 3584 3203 3211 
Q 3513 2838 3513 2113 
z
" transform="scale(0.015625)"/>
      <path id="DejaVuSans-67" d="M 2906 1791 
Q 2906 2416 2648 2759 
Q 2391 3103 1925 3103 
Q 1463 3103 1205 2759 
Q 947 2416 947 1791 
Q 947 1169 1205 825 
Q 1463 481 1925 481 
Q 2391 481 2648 825 
Q 2906 1169 2906 1791 
z
M 3481 434 
Q 3481 -459 3084 -895 
Q 2688 -1331 1869 -1331 
Q 1566 -1331 1297 -1286 
Q 1028 -1241 775 -1147 
L 775 -588 
Q 1028 -725 1275 -790 
Q 1522 -856 1778 -856 
Q 2344 -856 2625 -561 
Q 2906 -266 2906 331 
L 2906 616 
Q 2728 306 2450 153 
Q 2172 0 1784 0 
Q 1141 0 747 490 
Q 353 981 353 1791 
Q 353 2603 747 3093 
Q 1141 3584 1784 3584 
Q 2172 3584 2450 3431 
Q 2728 3278 2906 2969 
L 2906 3500 
L 3481 3500 
L 3481 434 
z
" transform="scale(0.015625)"/>
     </defs>
     <use xlink:href="#DejaVuSans-2d"/>
     <use xlink:href="#DejaVuSans-20" x="36.083984"/>
     <use xlink:href="#DejaVuSans-45" x="67.871094"/>
     <use xlink:href="#DejaVuSans-70" x="131.054688"/>
     <use xlink:href="#DejaVuSans-6f" x="194.53125"/>
     <use xlink:href="#DejaVuSans-63" x="255.712891"/>
     <use xlink:href="#DejaVuSans-68" x="310.693359"/>
     <use xlink:href="#DejaVuSans-20" x="374.072266"/>
     <use xlink:href="#DejaVuSans-74" x="405.859375"/>
     <use xlink:href="#DejaVuSans-72" x="445.068359"/>
     <use xlink:href="#DejaVuSans-61" x="486.181641"/>
     <use xlink:href="#DejaVuSans-69" x="547.460938"/>
     <use xlink:href="#DejaVuSans-6e" x="575.244141"/>
     <use xlink:href="#DejaVuSans-65" x="638.623047"/>
     <use xlink:href="#DejaVuSans-72" x="700.146484"/>
     <use xlink:href="#DejaVuSans-20" x="741.259766"/>
     <use xlink:href="#DejaVuSans-61" x="773.046875"/>
     <use xlink:href="#DejaVuSans-6e" x="834.326172"/>
     <use xlink:href="#DejaVuSans-64" x="897.705078"/>
     <use xlink:href="#DejaVuSans-20" x="961.181641"/>
     <use xlink:href="#DejaVuSans-6c" x="992.96875"/>
     <use xlink:href="#DejaVuSans-6f" x="1020.751953"/>
     <use xlink:href="#DejaVuSans-67" x="1081.933594"/>
     <use xlink:href="#DejaVuSans-73" x="1145.410156"/>
    </g>
   </g>
   <g id="text_5">
    <!-- API Layer -->
    <g style="fill: #1a365d" transform="translate(419.6736 116.74944) scale(0.125 -0.125)">
     <defs>
      <path id="DejaVuSans-Bold-41" d="M 3419 850 
L 1538 850 
L 1241 0 
L 31 0 
L 1759 4666 
L 3194 4666 
L 4922 0 
L 3713 0 
L 3419 850 
z
M 1838 1716 
L 3116 1716 
L 2478 3572 
L 1838 1716 
z
" transform="scale(0.015625)"/>
      <path id="DejaVuSans-Bold-50" d="M 588 4666 
L 2584 4666 
Q 3475 4666 3951 4270 
Q 4428 3875 4428 3144 
Q 4428 2409 3951 2014 
Q 3475 1619 2584 1619 
L 1791 1619 
L 1791 0 
L 588 0 
L 588 4666 
z
M 1791 3794 
L 1791 2491 
L 2456 2491 
Q 2806 2491 2997 2661 
Q 3188 2831 3188 3144 
Q 3188 3456 2997 3625 
Q 2806 3794 2456 3794 
L 1791 3794 
z
" transform="scale(0.015625)"/>
     </defs>
     <use xlink:href="#DejaVuSans-Bold-41"/>
     <use xlink:href="#DejaVuSans-Bold-50" x="77.392578"/>
     <use xlink:href="#DejaVuSans-Bold-49" x="150.683594"/>
     <use xlink:href="#DejaVuSans-Bold-20" x="187.890625"/>
     <use xlink:href="#DejaVuSans-Bold-4c" x="222.705078"/>
     <use xlink:href="#DejaVuSans-Bold-61" x="286.425781"/>
     <use xlink:href="#DejaVuSans-Bold-79" x="350.78125"/>
     <use xlink:href="#DejaVuSans-Bold-65" x="415.966797"/>
     <use xlink:href="#DejaVuSans-Bold-72" x="483.789062"/>
    </g>
   </g>
   <g id="text_6">
    <!-- - reset / step / state -->
    <g style="fill: #2d3748" transform="translate(427.0392 142.03008) scale(0.1 -0.1)">
     <defs>
      <path id="DejaVuSans-2f" d="M 1625 4666 
L 2156 4666 
L 531 -594 
L 0 -594 
L 1625 4666 
z
" transform="scale(0.015625)"/>
     </defs>
     <use xlink:href="#DejaVuSans-2d"/>
     <use xlink:href="#DejaVuSans-20" x="36.083984"/>
     <use xlink:href="#DejaVuSans-72" x="67.871094"/>
     <use xlink:href="#DejaVuSans-65" x="106.734375"/>
     <use xlink:href="#DejaVuSans-73" x="168.257812"/>
     <use xlink:href="#DejaVuSans-65" x="220.357422"/>
     <use xlink:href="#DejaVuSans-74" x="281.880859"/>
     <use xlink:href="#DejaVuSans-20" x="321.089844"/>
     <use xlink:href="#DejaVuSans-2f" x="352.876953"/>
     <use xlink:href="#DejaVuSans-20" x="386.568359"/>
     <use xlink:href="#DejaVuSans-73" x="418.355469"/>
     <use xlink:href="#DejaVuSans-74" x="470.455078"/>
     <use xlink:href="#DejaVuSans-65" x="509.664062"/>
     <use xlink:href="#DejaVuSans-70" x="571.1875"/>
     <use xlink:href="#DejaVuSans-20" x="634.664062"/>
     <use xlink:href="#DejaVuSans-2f" x="666.451172"/>
     <use xlink:href="#DejaVuSans-20" x="700.142578"/>
     <use xlink:href="#DejaVuSans-73" x="731.929688"/>
     <use xlink:href="#DejaVuSans-74" x="784.029297"/>
     <use xlink:href="#DejaVuSans-61" x="823.238281"/>
     <use xlink:href="#DejaVuSans-74" x="884.517578"/>
     <use xlink:href="#DejaVuSans-65" x="923.726562"/>
    </g>
   </g>
   <g id="text_7">
    <!-- - auto-step + support search -->
    <g style="fill: #2d3748" transform="translate(427.0392 173.63088) scale(0.1 -0.1)">
     <use xlink:href="#DejaVuSans-2d"/>
     <use xlink:href="#DejaVuSans-20" x="36.083984"/>
     <use xlink:href="#DejaVuSans-61" x="67.871094"/>
     <use xlink:href="#DejaVuSans-75" x="129.150391"/>
     <use xlink:href="#DejaVuSans-74" x="192.529297"/>
     <use xlink:href="#DejaVuSans-6f" x="231.738281"/>
     <use xlink:href="#DejaVuSans-2d" x="294.794922"/>
     <use xlink:href="#DejaVuSans-73" x="330.878906"/>
     <use xlink:href="#DejaVuSans-74" x="382.978516"/>
     <use xlink:href="#DejaVuSans-65" x="422.1875"/>
     <use xlink:href="#DejaVuSans-70" x="483.710938"/>
     <use xlink:href="#DejaVuSans-20" x="547.1875"/>
     <use xlink:href="#DejaVuSans-2b" x="578.974609"/>
     <use xlink:href="#DejaVuSans-20" x="662.763672"/>
     <use xlink:href="#DejaVuSans-73" x="694.550781"/>
     <use xlink:href="#DejaVuSans-75" x="746.650391"/>
     <use xlink:href="#DejaVuSans-70" x="810.029297"/>
     <use xlink:href="#DejaVuSans-70" x="873.505859"/>
     <use xlink:href="#DejaVuSans-6f" x="936.982422"/>
     <use xlink:href="#DejaVuSans-72" x="998.164062"/>
     <use xlink:href="#DejaVuSans-74" x="1039.277344"/>
     <use xlink:href="#DejaVuSans-20" x="1078.486328"/>
     <use xlink:href="#DejaVuSans-73" x="1110.273438"/>
     <use xlink:href="#DejaVuSans-65" x="1162.373047"/>
     <use xlink:href="#DejaVuSans-61" x="1223.896484"/>
     <use xlink:href="#DejaVuSans-72" x="1285.175781"/>
     <use xlink:href="#DejaVuSans-63" x="1324.039062"/>
     <use xlink:href="#DejaVuSans-68" x="1379.019531"/>
    </g>
   </g>
   <g id="text_8">
    <!-- - training run + training logs -->
    <g style="fill: #2d3748" transform="translate(427.0392 205.23168) scale(0.1 -0.1)">
     <use xlink:href="#DejaVuSans-2d"/>
     <use xlink:href="#DejaVuSans-20" x="36.083984"/>
     <use xlink:href="#DejaVuSans-74" x="67.871094"/>
     <use xlink:href="#DejaVuSans-72" x="107.080078"/>
     <use xlink:href="#DejaVuSans-61" x="148.193359"/>
     <use xlink:href="#DejaVuSans-69" x="209.472656"/>
     <use xlink:href="#DejaVuSans-6e" x="237.255859"/>
     <use xlink:href="#DejaVuSans-69" x="300.634766"/>
     <use xlink:href="#DejaVuSans-6e" x="328.417969"/>
     <use xlink:href="#DejaVuSans-67" x="391.796875"/>
     <use xlink:href="#DejaVuSans-20" x="455.273438"/>
     <use xlink:href="#DejaVuSans-72" x="487.060547"/>
     <use xlink:href="#DejaVuSans-75" x="528.173828"/>
     <use xlink:href="#DejaVuSans-6e" x="591.552734"/>
     <use xlink:href="#DejaVuSans-20" x="654.931641"/>
     <use xlink:href="#DejaVuSans-2b" x="686.71875"/>
     <use xlink:href="#DejaVuSans-20" x="770.507812"/>
     <use xlink:href="#DejaVuSans-74" x="802.294922"/>
     <use xlink:href="#DejaVuSans-72" x="841.503906"/>
     <use xlink:href="#DejaVuSans-61" x="882.617188"/>
     <use xlink:href="#DejaVuSans-69" x="943.896484"/>
     <use xlink:href="#DejaVuSans-6e" x="971.679688"/>
     <use xlink:href="#DejaVuSans-69" x="1035.058594"/>
     <use xlink:href="#DejaVuSans-6e" x="1062.841797"/>
     <use xlink:href="#DejaVuSans-67" x="1126.220703"/>
     <use xlink:href="#DejaVuSans-20" x="1189.697266"/>
     <use xlink:href="#DejaVuSans-6c" x="1221.484375"/>
     <use xlink:href="#DejaVuSans-6f" x="1249.267578"/>
     <use xlink:href="#DejaVuSans-67" x="1310.449219"/>
     <use xlink:href="#DejaVuSans-73" x="1373.925781"/>
    </g>
   </g>
   <g id="text_9">
    <!-- Environment Layer -->
    <g style="fill: #1a365d" transform="translate(66.1248 276.86016) scale(0.125 -0.125)">
     <defs>
      <path id="DejaVuSans-Bold-45" d="M 588 4666 
L 3834 4666 
L 3834 3756 
L 1791 3756 
L 1791 2888 
L 3713 2888 
L 3713 1978 
L 1791 1978 
L 1791 909 
L 3903 909 
L 3903 0 
L 588 0 
L 588 4666 
z
" transform="scale(0.015625)"/>
      <path id="DejaVuSans-Bold-6e" d="M 4056 2131 
L 4056 0 
L 2931 0 
L 2931 347 
L 2931 1631 
Q 2931 2084 2911 2256 
Q 2891 2428 2841 2509 
Q 2775 2619 2662 2680 
Q 2550 2741 2406 2741 
Q 2056 2741 1856 2470 
Q 1656 2200 1656 1722 
L 1656 0 
L 538 0 
L 538 3500 
L 1656 3500 
L 1656 2988 
Q 1909 3294 2193 3439 
Q 2478 3584 2822 3584 
Q 3428 3584 3742 3212 
Q 4056 2841 4056 2131 
z
" transform="scale(0.015625)"/>
      <path id="DejaVuSans-Bold-76" d="M 97 3500 
L 1216 3500 
L 2088 1081 
L 2956 3500 
L 4078 3500 
L 2700 0 
L 1472 0 
L 97 3500 
z
" transform="scale(0.015625)"/>
      <path id="DejaVuSans-Bold-69" d="M 538 3500 
L 1656 3500 
L 1656 0 
L 538 0 
L 538 3500 
z
M 538 4863 
L 1656 4863 
L 1656 3950 
L 538 3950 
L 538 4863 
z
" transform="scale(0.015625)"/>
      <path id="DejaVuSans-Bold-6f" d="M 2203 2784 
Q 1831 2784 1636 2517 
Q 1441 2250 1441 1747 
Q 1441 1244 1636 976 
Q 1831 709 2203 709 
Q 2569 709 2762 976 
Q 2956 1244 2956 1747 
Q 2956 2250 2762 2517 
Q 2569 2784 2203 2784 
z
M 2203 3584 
Q 3106 3584 3614 3096 
Q 4122 2609 4122 1747 
Q 4122 884 3614 396 
Q 3106 -91 2203 -91 
Q 1297 -91 786 396 
Q 275 884 275 1747 
Q 275 2609 786 3096 
Q 1297 3584 2203 3584 
z
" transform="scale(0.015625)"/>
      <path id="DejaVuSans-Bold-6d" d="M 3781 2919 
Q 3994 3244 4286 3414 
Q 4578 3584 4928 3584 
Q 5531 3584 5847 3212 
Q 6163 2841 6163 2131 
L 6163 0 
L 5038 0 
L 5038 1825 
Q 5041 1866 5042 1909 
Q 5044 1953 5044 2034 
Q 5044 2406 4934 2573 
Q 4825 2741 4581 2741 
Q 4263 2741 4089 2478 
Q 3916 2216 3909 1719 
L 3909 0 
L 2784 0 
L 2784 1825 
Q 2784 2406 2684 2573 
Q 2584 2741 2328 2741 
Q 2006 2741 1831 2477 
Q 1656 2213 1656 1722 
L 1656 0 
L 531 0 
L 531 3500 
L 1656 3500 
L 1656 2988 
Q 1863 3284 2130 3434 
Q 2397 3584 2719 3584 
Q 3081 3584 3359 3409 
Q 3638 3234 3781 2919 
z
" transform="scale(0.015625)"/>
      <path id="DejaVuSans-Bold-74" d="M 1759 4494 
L 1759 3500 
L 2913 3500 
L 2913 2700 
L 1759 2700 
L 1759 1216 
Q 1759 972 1856 886 
Q 1953 800 2241 800 
L 2816 800 
L 2816 0 
L 1856 0 
Q 1194 0 917 276 
Q 641 553 641 1216 
L 641 2700 
L 84 2700 
L 84 3500 
L 641 3500 
L 641 4494 
L 1759 4494 
z
" transform="scale(0.015625)"/>
     </defs>
     <use xlink:href="#DejaVuSans-Bold-45"/>
     <use xlink:href="#DejaVuSans-Bold-6e" x="68.310547"/>
     <use xlink:href="#DejaVuSans-Bold-76" x="139.501953"/>
     <use xlink:href="#DejaVuSans-Bold-69" x="204.6875"/>
     <use xlink:href="#DejaVuSans-Bold-72" x="238.964844"/>
     <use xlink:href="#DejaVuSans-Bold-6f" x="288.28125"/>
     <use xlink:href="#DejaVuSans-Bold-6e" x="356.982422"/>
     <use xlink:href="#DejaVuSans-Bold-6d" x="428.173828"/>
     <use xlink:href="#DejaVuSans-Bold-65" x="532.373047"/>
     <use xlink:href="#DejaVuSans-Bold-6e" x="600.195312"/>
     <use xlink:href="#DejaVuSans-Bold-74" x="671.386719"/>
     <use xlink:href="#DejaVuSans-Bold-20" x="719.189453"/>
     <use xlink:href="#DejaVuSans-Bold-4c" x="754.003906"/>
     <use xlink:href="#DejaVuSans-Bold-61" x="817.724609"/>
     <use xlink:href="#DejaVuSans-Bold-79" x="882.080078"/>
     <use xlink:href="#DejaVuSans-Bold-65" x="947.265625"/>
     <use xlink:href="#DejaVuSans-Bold-72" x="1015.087891"/>
    </g>
   </g>
   <g id="text_10">
    <!-- - Task 1: email classification -->
    <g style="fill: #2d3748" transform="translate(73.4904 302.1408) scale(0.1 -0.1)">
     <defs>
      <path id="DejaVuSans-31" d="M 794 531 
L 1825 531 
L 1825 4091 
L 703 3866 
L 703 4441 
L 1819 4666 
L 2450 4666 
L 2450 531 
L 3481 531 
L 3481 0 
L 794 0 
L 794 531 
z
" transform="scale(0.015625)"/>
      <path id="DejaVuSans-3a" d="M 750 794 
L 1409 794 
L 1409 0 
L 750 0 
L 750 794 
z
M 750 3309 
L 1409 3309 
L 1409 2516 
L 750 2516 
L 750 3309 
z
" transform="scale(0.015625)"/>
      <path id="DejaVuSans-66" d="M 2375 4863 
L 2375 4384 
L 1825 4384 
Q 1516 4384 1395 4259 
Q 1275 4134 1275 3809 
L 1275 3500 
L 2222 3500 
L 2222 3053 
L 1275 3053 
L 1275 0 
L 697 0 
L 697 3053 
L 147 3053 
L 147 3500 
L 697 3500 
L 697 3744 
Q 697 4328 969 4595 
Q 1241 4863 1831 4863 
L 2375 4863 
z
" transform="scale(0.015625)"/>
     </defs>
     <use xlink:href="#DejaVuSans-2d"/>
     <use xlink:href="#DejaVuSans-20" x="36.083984"/>
     <use xlink:href="#DejaVuSans-54" x="67.871094"/>
     <use xlink:href="#DejaVuSans-61" x="112.455078"/>
     <use xlink:href="#DejaVuSans-73" x="173.734375"/>
     <use xlink:href="#DejaVuSans-6b" x="225.833984"/>
     <use xlink:href="#DejaVuSans-20" x="283.744141"/>
     <use xlink:href="#DejaVuSans-31" x="315.53125"/>
     <use xlink:href="#DejaVuSans-3a" x="379.154297"/>
     <use xlink:href="#DejaVuSans-20" x="412.845703"/>
     <use xlink:href="#DejaVuSans-65" x="444.632812"/>
     <use xlink:href="#DejaVuSans-6d" x="506.15625"/>
     <use xlink:href="#DejaVuSans-61" x="603.568359"/>
     <use xlink:href="#DejaVuSans-69" x="664.847656"/>
     <use xlink:href="#DejaVuSans-6c" x="692.630859"/>
     <use xlink:href="#DejaVuSans-20" x="720.414062"/>
     <use xlink:href="#DejaVuSans-63" x="752.201172"/>
     <use xlink:href="#DejaVuSans-6c" x="807.181641"/>
     <use xlink:href="#DejaVuSans-61" x="834.964844"/>
     <use xlink:href="#DejaVuSans-73" x="896.244141"/>
     <use xlink:href="#DejaVuSans-73" x="948.34375"/>
     <use xlink:href="#DejaVuSans-69" x="1000.443359"/>
     <use xlink:href="#DejaVuSans-66" x="1028.226562"/>
     <use xlink:href="#DejaVuSans-69" x="1063.431641"/>
     <use xlink:href="#DejaVuSans-63" x="1091.214844"/>
     <use xlink:href="#DejaVuSans-61" x="1146.195312"/>
     <use xlink:href="#DejaVuSans-74" x="1207.474609"/>
     <use xlink:href="#DejaVuSans-69" x="1246.683594"/>
     <use xlink:href="#DejaVuSans-6f" x="1274.466797"/>
     <use xlink:href="#DejaVuSans-6e" x="1335.648438"/>
    </g>
   </g>
   <g id="text_11">
    <!-- - Task 2: policy-safe response -->
    <g style="fill: #2d3748" transform="translate(73.4904 333.7416) scale(0.1 -0.1)">
     <defs>
      <path id="DejaVuSans-32" d="M 1228 531 
L 3431 531 
L 3431 0 
L 469 0 
L 469 531 
Q 828 903 1448 1529 
Q 2069 2156 2228 2338 
Q 2531 2678 2651 2914 
Q 2772 3150 2772 3378 
Q 2772 3750 2511 3984 
Q 2250 4219 1831 4219 
Q 1534 4219 1204 4116 
Q 875 4013 500 3803 
L 500 4441 
Q 881 4594 1212 4672 
Q 1544 4750 1819 4750 
Q 2544 4750 2975 4387 
Q 3406 4025 3406 3419 
Q 3406 3131 3298 2873 
Q 3191 2616 2906 2266 
Q 2828 2175 2409 1742 
Q 1991 1309 1228 531 
z
" transform="scale(0.015625)"/>
      <path id="DejaVuSans-79" d="M 2059 -325 
Q 1816 -950 1584 -1140 
Q 1353 -1331 966 -1331 
L 506 -1331 
L 506 -850 
L 844 -850 
Q 1081 -850 1212 -737 
Q 1344 -625 1503 -206 
L 1606 56 
L 191 3500 
L 800 3500 
L 1894 763 
L 2988 3500 
L 3597 3500 
L 2059 -325 
z
" transform="scale(0.015625)"/>
     </defs>
     <use xlink:href="#DejaVuSans-2d"/>
     <use xlink:href="#DejaVuSans-20" x="36.083984"/>
     <use xlink:href="#DejaVuSans-54" x="67.871094"/>
     <use xlink:href="#DejaVuSans-61" x="112.455078"/>
     <use xlink:href="#DejaVuSans-73" x="173.734375"/>
     <use xlink:href="#DejaVuSans-6b" x="225.833984"/>
     <use xlink:href="#DejaVuSans-20" x="283.744141"/>
     <use xlink:href="#DejaVuSans-32" x="315.53125"/>
     <use xlink:href="#DejaVuSans-3a" x="379.154297"/>
     <use xlink:href="#DejaVuSans-20" x="412.845703"/>
     <use xlink:href="#DejaVuSans-70" x="444.632812"/>
     <use xlink:href="#DejaVuSans-6f" x="508.109375"/>
     <use xlink:href="#DejaVuSans-6c" x="569.291016"/>
     <use xlink:href="#DejaVuSans-69" x="597.074219"/>
     <use xlink:href="#DejaVuSans-63" x="624.857422"/>
     <use xlink:href="#DejaVuSans-79" x="679.837891"/>
     <use xlink:href="#DejaVuSans-2d" x="737.267578"/>
     <use xlink:href="#DejaVuSans-73" x="773.351562"/>
     <use xlink:href="#DejaVuSans-61" x="825.451172"/>
     <use xlink:href="#DejaVuSans-66" x="886.730469"/>
     <use xlink:href="#DejaVuSans-65" x="921.935547"/>
     <use xlink:href="#DejaVuSans-20" x="983.458984"/>
     <use xlink:href="#DejaVuSans-72" x="1015.246094"/>
     <use xlink:href="#DejaVuSans-65" x="1054.109375"/>
     <use xlink:href="#DejaVuSans-73" x="1115.632812"/>
     <use xlink:href="#DejaVuSans-70" x="1167.732422"/>
     <use xlink:href="#DejaVuSans-6f" x="1231.208984"/>
     <use xlink:href="#DejaVuSans-6e" x="1292.390625"/>
     <use xlink:href="#DejaVuSans-73" x="1355.769531"/>
     <use xlink:href="#DejaVuSans-65" x="1407.869141"/>
    </g>
   </g>
   <g id="text_12">
    <!-- - Task 3: multi-system resolution -->
    <g style="fill: #2d3748" transform="translate(73.4904 365.3424) scale(0.1 -0.1)">
     <defs>
      <path id="DejaVuSans-33" d="M 2597 2516 
Q 3050 2419 3304 2112 
Q 3559 1806 3559 1356 
Q 3559 666 3084 287 
Q 2609 -91 1734 -91 
Q 1441 -91 1130 -33 
Q 819 25 488 141 
L 488 750 
Q 750 597 1062 519 
Q 1375 441 1716 441 
Q 2309 441 2620 675 
Q 2931 909 2931 1356 
Q 2931 1769 2642 2001 
Q 2353 2234 1838 2234 
L 1294 2234 
L 1294 2753 
L 1863 2753 
Q 2328 2753 2575 2939 
Q 2822 3125 2822 3475 
Q 2822 3834 2567 4026 
Q 2313 4219 1838 4219 
Q 1578 4219 1281 4162 
Q 984 4106 628 3988 
L 628 4550 
Q 988 4650 1302 4700 
Q 1616 4750 1894 4750 
Q 2613 4750 3031 4423 
Q 3450 4097 3450 3541 
Q 3450 3153 3228 2886 
Q 3006 2619 2597 2516 
z
" transform="scale(0.015625)"/>
     </defs>
     <use xlink:href="#DejaVuSans-2d"/>
     <use xlink:href="#DejaVuSans-20" x="36.083984"/>
     <use xlink:href="#DejaVuSans-54" x="67.871094"/>
     <use xlink:href="#DejaVuSans-61" x="112.455078"/>
     <use xlink:href="#DejaVuSans-73" x="173.734375"/>
     <use xlink:href="#DejaVuSans-6b" x="225.833984"/>
     <use xlink:href="#DejaVuSans-20" x="283.744141"/>
     <use xlink:href="#DejaVuSans-33" x="315.53125"/>
     <use xlink:href="#DejaVuSans-3a" x="379.154297"/>
     <use xlink:href="#DejaVuSans-20" x="412.845703"/>
     <use xlink:href="#DejaVuSans-6d" x="444.632812"/>
     <use xlink:href="#DejaVuSans-75" x="542.044922"/>
     <use xlink:href="#DejaVuSans-6c" x="605.423828"/>
     <use xlink:href="#DejaVuSans-74" x="633.207031"/>
     <use xlink:href="#DejaVuSans-69" x="672.416016"/>
     <use xlink:href="#DejaVuSans-2d" x="700.199219"/>
     <use xlink:href="#DejaVuSans-73" x="736.283203"/>
     <use xlink:href="#DejaVuSans-79" x="788.382812"/>
     <use xlink:href="#DejaVuSans-73" x="847.5625"/>
     <use xlink:href="#DejaVuSans-74" x="899.662109"/>
     <use xlink:href="#DejaVuSans-65" x="938.871094"/>
     <use xlink:href="#DejaVuSans-6d" x="1000.394531"/>
     <use xlink:href="#DejaVuSans-20" x="1097.806641"/>
     <use xlink:href="#DejaVuSans-72" x="1129.59375"/>
     <use xlink:href="#DejaVuSans-65" x="1168.457031"/>
     <use xlink:href="#DejaVuSans-73" x="1229.980469"/>
     <use xlink:href="#DejaVuSans-6f" x="1282.080078"/>
     <use xlink:href="#DejaVuSans-6c" x="1343.261719"/>
     <use xlink:href="#DejaVuSans-75" x="1371.044922"/>
     <use xlink:href="#DejaVuSans-74" x="1434.423828"/>
     <use xlink:href="#DejaVuSans-69" x="1473.632812"/>
     <use xlink:href="#DejaVuSans-6f" x="1501.416016"/>
     <use xlink:href="#DejaVuSans-6e" x="1562.597656"/>
    </g>
   </g>
   <g id="text_13">
    <!-- Model/Data Layer -->
    <g style="fill: #1a365d" transform="translate(419.6736 276.86016) scale(0.125 -0.125)">
     <defs>
      <path id="DejaVuSans-Bold-4d" d="M 588 4666 
L 2119 4666 
L 3181 2169 
L 4250 4666 
L 5778 4666 
L 5778 0 
L 4641 0 
L 4641 3413 
L 3566 897 
L 2803 897 
L 1728 3413 
L 1728 0 
L 588 0 
L 588 4666 
z
" transform="scale(0.015625)"/>
      <path id="DejaVuSans-Bold-64" d="M 2919 2988 
L 2919 4863 
L 4044 4863 
L 4044 0 
L 2919 0 
L 2919 506 
Q 2688 197 2409 53 
Q 2131 -91 1766 -91 
Q 1119 -91 703 423 
Q 288 938 288 1747 
Q 288 2556 703 3070 
Q 1119 3584 1766 3584 
Q 2128 3584 2408 3439 
Q 2688 3294 2919 2988 
z
M 2181 722 
Q 2541 722 2730 984 
Q 2919 1247 2919 1747 
Q 2919 2247 2730 2509 
Q 2541 2772 2181 2772 
Q 1825 2772 1636 2509 
Q 1447 2247 1447 1747 
Q 1447 1247 1636 984 
Q 1825 722 2181 722 
z
" transform="scale(0.015625)"/>
      <path id="DejaVuSans-Bold-6c" d="M 538 4863 
L 1656 4863 
L 1656 0 
L 538 0 
L 538 4863 
z
" transform="scale(0.015625)"/>
      <path id="DejaVuSans-Bold-2f" d="M 1644 4666 
L 2338 4666 
L 691 -594 
L 0 -594 
L 1644 4666 
z
" transform="scale(0.015625)"/>
      <path id="DejaVuSans-Bold-44" d="M 1791 3756 
L 1791 909 
L 2222 909 
Q 2959 909 3348 1275 
Q 3738 1641 3738 2338 
Q 3738 3031 3350 3393 
Q 2963 3756 2222 3756 
L 1791 3756 
z
M 588 4666 
L 1856 4666 
Q 2919 4666 3439 4514 
Q 3959 4363 4331 4000 
Q 4659 3684 4818 3271 
Q 4978 2859 4978 2338 
Q 4978 1809 4818 1395 
Q 4659 981 4331 666 
Q 3956 303 3431 151 
Q 2906 0 1856 0 
L 588 0 
L 588 4666 
z
" transform="scale(0.015625)"/>
     </defs>
     <use xlink:href="#DejaVuSans-Bold-4d"/>
     <use xlink:href="#DejaVuSans-Bold-6f" x="99.511719"/>
     <use xlink:href="#DejaVuSans-Bold-64" x="168.212891"/>
     <use xlink:href="#DejaVuSans-Bold-65" x="239.794922"/>
     <use xlink:href="#DejaVuSans-Bold-6c" x="307.617188"/>
     <use xlink:href="#DejaVuSans-Bold-2f" x="341.894531"/>
     <use xlink:href="#DejaVuSans-Bold-44" x="378.417969"/>
     <use xlink:href="#DejaVuSans-Bold-61" x="461.425781"/>
     <use xlink:href="#DejaVuSans-Bold-74" x="528.90625"/>
     <use xlink:href="#DejaVuSans-Bold-61" x="576.708984"/>
     <use xlink:href="#DejaVuSans-Bold-20" x="644.189453"/>
     <use xlink:href="#DejaVuSans-Bold-4c" x="679.003906"/>
     <use xlink:href="#DejaVuSans-Bold-61" x="742.724609"/>
     <use xlink:href="#DejaVuSans-Bold-79" x="807.080078"/>
     <use xlink:href="#DejaVuSans-Bold-65" x="872.265625"/>
     <use xlink:href="#DejaVuSans-Bold-72" x="940.087891"/>
    </g>
   </g>
   <g id="text_14">
    <!-- - RL-style policy + epoch logs -->
    <g style="fill: #2d3748" transform="translate(427.0392 302.1408) scale(0.1 -0.1)">
     <defs>
      <path id="DejaVuSans-52" d="M 2841 2188 
Q 3044 2119 3236 1894 
Q 3428 1669 3622 1275 
L 4263 0 
L 3584 0 
L 2988 1197 
Q 2756 1666 2539 1819 
Q 2322 1972 1947 1972 
L 1259 1972 
L 1259 0 
L 628 0 
L 628 4666 
L 2053 4666 
Q 2853 4666 3247 4331 
Q 3641 3997 3641 3322 
Q 3641 2881 3436 2590 
Q 3231 2300 2841 2188 
z
M 1259 4147 
L 1259 2491 
L 2053 2491 
Q 2509 2491 2742 2702 
Q 2975 2913 2975 3322 
Q 2975 3731 2742 3939 
Q 2509 4147 2053 4147 
L 1259 4147 
z
" transform="scale(0.015625)"/>
      <path id="DejaVuSans-4c" d="M 628 4666 
L 1259 4666 
L 1259 531 
L 3531 531 
L 3531 0 
L 628 0 
L 628 4666 
z
" transform="scale(0.015625)"/>
     </defs>
     <use xlink:href="#DejaVuSans-2d"/>
     <use xlink:href="#DejaVuSans-20" x="36.083984"/>
     <use xlink:href="#DejaVuSans-52" x="67.871094"/>
     <use xlink:href="#DejaVuSans-4c" x="137.353516"/>
     <use xlink:href="#DejaVuSans-2d" x="191.316406"/>
     <use xlink:href="#DejaVuSans-73" x="227.400391"/>
     <use xlink:href="#DejaVuSans-74" x="279.5"/>
     <use xlink:href="#DejaVuSans-79" x="318.708984"/>
     <use xlink:href="#DejaVuSans-6c" x="377.888672"/>
     <use xlink:href="#DejaVuSans-65" x="405.671875"/>
     <use xlink:href="#DejaVuSans-20" x="467.195312"/>
     <use xlink:href="#DejaVuSans-70" x="498.982422"/>
     <use xlink:href="#DejaVuSans-6f" x="562.458984"/>
     <use xlink:href="#DejaVuSans-6c" x="623.640625"/>
     <use xlink:href="#DejaVuSans-69" x="651.423828"/>
     <use xlink:href="#DejaVuSans-63" x="679.207031"/>
     <use xlink:href="#DejaVuSans-79" x="734.1875"/>
     <use xlink:href="#DejaVuSans-20" x="793.367188"/>
     <use xlink:href="#DejaVuSans-2b" x="825.154297"/>
     <use xlink:href="#DejaVuSans-20" x="908.943359"/>
     <use xlink:href="#DejaVuSans-65" x="940.730469"/>
     <use xlink:href="#DejaVuSans-70" x="1002.253906"/>
     <use xlink:href="#DejaVuSans-6f" x="1065.730469"/>
     <use xlink:href="#DejaVuSans-63" x="1126.912109"/>
     <use xlink:href="#DejaVuSans-68" x="1181.892578"/>
     <use xlink:href="#DejaVuSans-20" x="1245.271484"/>
     <use xlink:href="#DejaVuSans-6c" x="1277.058594"/>
     <use xlink:href="#DejaVuSans-6f" x="1304.841797"/>
     <use xlink:href="#DejaVuSans-67" x="1366.023438"/>
     <use xlink:href="#DejaVuSans-73" x="1429.5"/>
    </g>
   </g>
   <g id="text_15">
    <!-- - HF Space classifier integration -->
    <g style="fill: #2d3748" transform="translate(427.0392 333.7416) scale(0.1 -0.1)">
     <defs>
      <path id="DejaVuSans-48" d="M 628 4666 
L 1259 4666 
L 1259 2753 
L 3553 2753 
L 3553 4666 
L 4184 4666 
L 4184 0 
L 3553 0 
L 3553 2222 
L 1259 2222 
L 1259 0 
L 628 0 
L 628 4666 
z
" transform="scale(0.015625)"/>
      <path id="DejaVuSans-46" d="M 628 4666 
L 3309 4666 
L 3309 4134 
L 1259 4134 
L 1259 2759 
L 3109 2759 
L 3109 2228 
L 1259 2228 
L 1259 0 
L 628 0 
L 628 4666 
z
" transform="scale(0.015625)"/>
      <path id="DejaVuSans-53" d="M 3425 4513 
L 3425 3897 
Q 3066 4069 2747 4153 
Q 2428 4238 2131 4238 
Q 1616 4238 1336 4038 
Q 1056 3838 1056 3469 
Q 1056 3159 1242 3001 
Q 1428 2844 1947 2747 
L 2328 2669 
Q 3034 2534 3370 2195 
Q 3706 1856 3706 1288 
Q 3706 609 3251 259 
Q 2797 -91 1919 -91 
Q 1588 -91 1214 -16 
Q 841 59 441 206 
L 441 856 
Q 825 641 1194 531 
Q 1563 422 1919 422 
Q 2459 422 2753 634 
Q 3047 847 3047 1241 
Q 3047 1584 2836 1778 
Q 2625 1972 2144 2069 
L 1759 2144 
Q 1053 2284 737 2584 
Q 422 2884 422 3419 
Q 422 4038 858 4394 
Q 1294 4750 2059 4750 
Q 2388 4750 2728 4690 
Q 3069 4631 3425 4513 
z
" transform="scale(0.015625)"/>
     </defs>
     <use xlink:href="#DejaVuSans-2d"/>
     <use xlink:href="#DejaVuSans-20" x="36.083984"/>
     <use xlink:href="#DejaVuSans-48" x="67.871094"/>
     <use xlink:href="#DejaVuSans-46" x="143.066406"/>
     <use xlink:href="#DejaVuSans-20" x="200.585938"/>
     <use xlink:href="#DejaVuSans-53" x="232.373047"/>
     <use xlink:href="#DejaVuSans-70" x="295.849609"/>
     <use xlink:href="#DejaVuSans-61" x="359.326172"/>
     <use xlink:href="#DejaVuSans-63" x="420.605469"/>
     <use xlink:href="#DejaVuSans-65" x="475.585938"/>
     <use xlink:href="#DejaVuSans-20" x="537.109375"/>
     <use xlink:href="#DejaVuSans-63" x="568.896484"/>
     <use xlink:href="#DejaVuSans-6c" x="623.876953"/>
     <use xlink:href="#DejaVuSans-61" x="651.660156"/>
     <use xlink:href="#DejaVuSans-73" x="712.939453"/>
     <use xlink:href="#DejaVuSans-73" x="765.039062"/>
     <use xlink:href="#DejaVuSans-69" x="817.138672"/>
     <use xlink:href="#DejaVuSans-66" x="844.921875"/>
     <use xlink:href="#DejaVuSans-69" x="880.126953"/>
     <use xlink:href="#DejaVuSans-65" x="907.910156"/>
     <use xlink:href="#DejaVuSans-72" x="969.433594"/>
     <use xlink:href="#DejaVuSans-20" x="1010.546875"/>
     <use xlink:href="#DejaVuSans-69" x="1042.333984"/>
     <use xlink:href="#DejaVuSans-6e" x="1070.117188"/>
     <use xlink:href="#DejaVuSans-74" x="1133.496094"/>
     <use xlink:href="#DejaVuSans-65" x="1172.705078"/>
     <use xlink:href="#DejaVuSans-67" x="1234.228516"/>
     <use xlink:href="#DejaVuSans-72" x="1297.705078"/>
     <use xlink:href="#DejaVuSans-61" x="1338.818359"/>
     <use xlink:href="#DejaVuSans-74" x="1400.097656"/>
     <use xlink:href="#DejaVuSans-69" x="1439.306641"/>
     <use xlink:href="#DejaVuSans-6f" x="1467.089844"/>
     <use xlink:href="#DejaVuSans-6e" x="1528.271484"/>
    </g>
   </g>
   <g id="text_16">
    <!-- - Corpus index + recommendations -->
    <g style="fill: #2d3748" transform="translate(427.0392 365.3424) scale(0.1 -0.1)">
     <defs>
      <path id="DejaVuSans-43" d="M 4122 4306 
L 4122 3641 
Q 3803 3938 3442 4084 
Q 3081 4231 2675 4231 
Q 1875 4231 1450 3742 
Q 1025 3253 1025 2328 
Q 1025 1406 1450 917 
Q 1875 428 2675 428 
Q 3081 428 3442 575 
Q 3803 722 4122 1019 
L 4122 359 
Q 3791 134 3420 21 
Q 3050 -91 2638 -91 
Q 1578 -91 968 557 
Q 359 1206 359 2328 
Q 359 3453 968 4101 
Q 1578 4750 2638 4750 
Q 3056 4750 3426 4639 
Q 3797 4528 4122 4306 
z
" transform="scale(0.015625)"/>
      <path id="DejaVuSans-78" d="M 3513 3500 
L 2247 1797 
L 3578 0 
L 2900 0 
L 1881 1375 
L 863 0 
L 184 0 
L 1544 1831 
L 300 3500 
L 978 3500 
L 1906 2253 
L 2834 3500 
L 3513 3500 
z
" transform="scale(0.015625)"/>
     </defs>
     <use xlink:href="#DejaVuSans-2d"/>
     <use xlink:href="#DejaVuSans-20" x="36.083984"/>
     <use xlink:href="#DejaVuSans-43" x="67.871094"/>
     <use xlink:href="#DejaVuSans-6f" x="137.695312"/>
     <use xlink:href="#DejaVuSans-72" x="198.876953"/>
     <use xlink:href="#DejaVuSans-70" x="239.990234"/>
     <use xlink:href="#DejaVuSans-75" x="303.466797"/>
     <use xlink:href="#DejaVuSans-73" x="366.845703"/>
     <use xlink:href="#DejaVuSans-20" x="418.945312"/>
     <use xlink:href="#DejaVuSans-69" x="450.732422"/>
     <use xlink:href="#DejaVuSans-6e" x="478.515625"/>
     <use xlink:href="#DejaVuSans-64" x="541.894531"/>
     <use xlink:href="#DejaVuSans-65" x="605.371094"/>
     <use xlink:href="#DejaVuSans-78" x="665.144531"/>
     <use xlink:href="#DejaVuSans-20" x="724.324219"/>
     <use xlink:href="#DejaVuSans-2b" x="756.111328"/>
     <use xlink:href="#DejaVuSans-20" x="839.900391"/>
     <use xlink:href="#DejaVuSans-72" x="871.6875"/>
     <use xlink:href="#DejaVuSans-65" x="910.550781"/>
     <use xlink:href="#DejaVuSans-63" x="972.074219"/>
     <use xlink:href="#DejaVuSans-6f" x="1027.054688"/>
     <use xlink:href="#DejaVuSans-6d" x="1088.236328"/>
     <use xlink:href="#DejaVuSans-6d" x="1185.648438"/>
     <use xlink:href="#DejaVuSans-65" x="1283.060547"/>
     <use xlink:href="#DejaVuSans-6e" x="1344.583984"/>
     <use xlink:href="#DejaVuSans-64" x="1407.962891"/>
     <use xlink:href="#DejaVuSans-61" x="1471.439453"/>
     <use xlink:href="#DejaVuSans-74" x="1532.71875"/>
     <use xlink:href="#DejaVuSans-69" x="1571.927734"/>
     <use xlink:href="#DejaVuSans-6f" x="1599.710938"/>
     <use xlink:href="#DejaVuSans-6e" x="1660.892578"/>
     <use xlink:href="#DejaVuSans-73" x="1724.271484"/>
    </g>
   </g>
   <g id="text_17">
    <!-- Feature Architecture -->
    <g style="fill: #1a365d" transform="translate(51.3936 32.48064) scale(0.16 -0.16)">
     <defs>
      <path id="DejaVuSans-Bold-46" d="M 588 4666 
L 3834 4666 
L 3834 3756 
L 1791 3756 
L 1791 2888 
L 3713 2888 
L 3713 1978 
L 1791 1978 
L 1791 0 
L 588 0 
L 588 4666 
z
" transform="scale(0.015625)"/>
      <path id="DejaVuSans-Bold-75" d="M 500 1363 
L 500 3500 
L 1625 3500 
L 1625 3150 
Q 1625 2866 1622 2436 
Q 1619 2006 1619 1863 
Q 1619 1441 1641 1255 
Q 1663 1069 1716 984 
Q 1784 875 1895 815 
Q 2006 756 2150 756 
Q 2500 756 2700 1025 
Q 2900 1294 2900 1772 
L 2900 3500 
L 4019 3500 
L 4019 0 
L 2900 0 
L 2900 506 
Q 2647 200 2364 54 
Q 2081 -91 1741 -91 
Q 1134 -91 817 281 
Q 500 653 500 1363 
z
" transform="scale(0.015625)"/>
      <path id="DejaVuSans-Bold-63" d="M 3366 3391 
L 3366 2478 
Q 3138 2634 2908 2709 
Q 2678 2784 2431 2784 
Q 1963 2784 1702 2511 
Q 1441 2238 1441 1747 
Q 1441 1256 1702 982 
Q 1963 709 2431 709 
Q 2694 709 2930 787 
Q 3166 866 3366 1019 
L 3366 103 
Q 3103 6 2833 -42 
Q 2563 -91 2291 -91 
Q 1344 -91 809 395 
Q 275 881 275 1747 
Q 275 2613 809 3098 
Q 1344 3584 2291 3584 
Q 2566 3584 2833 3536 
Q 3100 3488 3366 3391 
z
" transform="scale(0.015625)"/>
      <path id="DejaVuSans-Bold-68" d="M 4056 2131 
L 4056 0 
L 2931 0 
L 2931 347 
L 2931 1625 
Q 2931 2084 2911 2256 
Q 2891 2428 2841 2509 
Q 2775 2619 2662 2680 
Q 2550 2741 2406 2741 
Q 2056 2741 1856 2470 
Q 1656 2200 1656 1722 
L 1656 0 
L 538 0 
L 538 4863 
L 1656 4863 
L 1656 2988 
Q 1909 3294 2193 3439 
Q 2478 3584 2822 3584 
Q 3428 3584 3742 3212 
Q 4056 2841 4056 2131 
z
" transform="scale(0.015625)"/>
     </defs>
     <use xlink:href="#DejaVuSans-Bold-46"/>
     <use xlink:href="#DejaVuSans-Bold-65" x="64.310547"/>
     <use xlink:href="#DejaVuSans-Bold-61" x="132.132812"/>
     <use xlink:href="#DejaVuSans-Bold-74" x="199.613281"/>
     <use xlink:href="#DejaVuSans-Bold-75" x="247.416016"/>
     <use xlink:href="#DejaVuSans-Bold-72" x="318.607422"/>
     <use xlink:href="#DejaVuSans-Bold-65" x="367.923828"/>
     <use xlink:href="#DejaVuSans-Bold-20" x="435.746094"/>
     <use xlink:href="#DejaVuSans-Bold-41" x="470.560547"/>
     <use xlink:href="#DejaVuSans-Bold-72" x="547.953125"/>
     <use xlink:href="#DejaVuSans-Bold-63" x="597.269531"/>
     <use xlink:href="#DejaVuSans-Bold-68" x="656.546875"/>
     <use xlink:href="#DejaVuSans-Bold-69" x="727.738281"/>
     <use xlink:href="#DejaVuSans-Bold-74" x="762.015625"/>
     <use xlink:href="#DejaVuSans-Bold-65" x="809.818359"/>
     <use xlink:href="#DejaVuSans-Bold-63" x="877.640625"/>
     <use xlink:href="#DejaVuSans-Bold-74" x="936.917969"/>
     <use xlink:href="#DejaVuSans-Bold-75" x="984.720703"/>
     <use xlink:href="#DejaVuSans-Bold-72" x="1055.912109"/>
     <use xlink:href="#DejaVuSans-Bold-65" x="1105.228516"/>
    </g>
   </g>
   <g id="text_18">
    <!-- Layered system view for the OpenEnv email triage benchmark -->
    <g style="fill: #2d3748" transform="translate(51.3936 53.54784) scale(0.102 -0.102)">
     <defs>
      <path id="DejaVuSans-76" d="M 191 3500 
L 800 3500 
L 1894 563 
L 2988 3500 
L 3597 3500 
L 2284 0 
L 1503 0 
L 191 3500 
z
" transform="scale(0.015625)"/>
      <path id="DejaVuSans-77" d="M 269 3500 
L 844 3500 
L 1563 769 
L 2278 3500 
L 2956 3500 
L 3675 769 
L 4391 3500 
L 4966 3500 
L 4050 0 
L 3372 0 
L 2619 2869 
L 1863 0 
L 1184 0 
L 269 3500 
z
" transform="scale(0.015625)"/>
      <path id="DejaVuSans-4f" d="M 2522 4238 
Q 1834 4238 1429 3725 
Q 1025 3213 1025 2328 
Q 1025 1447 1429 934 
Q 1834 422 2522 422 
Q 3209 422 3611 934 
Q 4013 1447 4013 2328 
Q 4013 3213 3611 3725 
Q 3209 4238 2522 4238 
z
M 2522 4750 
Q 3503 4750 4090 4092 
Q 4678 3434 4678 2328 
Q 4678 1225 4090 567 
Q 3503 -91 2522 -91 
Q 1538 -91 948 565 
Q 359 1222 359 2328 
Q 359 3434 948 4092 
Q 1538 4750 2522 4750 
z
" transform="scale(0.015625)"/>
     </defs>
     <use xlink:href="#DejaVuSans-4c"/>
     <use xlink:href="#DejaVuSans-61" x="55.712891"/>
     <use xlink:href="#DejaVuSans-79" x="116.992188"/>
     <use xlink:href="#DejaVuSans-65" x="176.171875"/>
     <use xlink:href="#DejaVuSans-72" x="237.695312"/>
     <use xlink:href="#DejaVuSans-65" x="276.558594"/>
     <use xlink:href="#DejaVuSans-64" x="338.082031"/>
     <use xlink:href="#DejaVuSans-20" x="401.558594"/>
     <use xlink:href="#DejaVuSans-73" x="433.345703"/>
     <use xlink:href="#DejaVuSans-79" x="485.445312"/>
     <use xlink:href="#DejaVuSans-73" x="544.625"/>
     <use xlink:href="#DejaVuSans-74" x="596.724609"/>
     <use xlink:href="#DejaVuSans-65" x="635.933594"/>
     <use xlink:href="#DejaVuSans-6d" x="697.457031"/>
     <use xlink:href="#DejaVuSans-20" x="794.869141"/>
     <use xlink:href="#DejaVuSans-76" x="826.65625"/>
     <use xlink:href="#DejaVuSans-69" x="885.835938"/>
     <use xlink:href="#DejaVuSans-65" x="913.619141"/>
     <use xlink:href="#DejaVuSans-77" x="975.142578"/>
     <use xlink:href="#DejaVuSans-20" x="1056.929688"/>
     <use xlink:href="#DejaVuSans-66" x="1088.716797"/>
     <use xlink:href="#DejaVuSans-6f" x="1123.921875"/>
     <use xlink:href="#DejaVuSans-72" x="1185.103516"/>
     <use xlink:href="#DejaVuSans-20" x="1226.216797"/>
     <use xlink:href="#DejaVuSans-74" x="1258.003906"/>
     <use xlink:href="#DejaVuSans-68" x="1297.212891"/>
     <use xlink:href="#DejaVuSans-65" x="1360.591797"/>
     <use xlink:href="#DejaVuSans-20" x="1422.115234"/>
     <use xlink:href="#DejaVuSans-4f" x="1453.902344"/>
     <use xlink:href="#DejaVuSans-70" x="1532.613281"/>
     <use xlink:href="#DejaVuSans-65" x="1596.089844"/>
     <use xlink:href="#DejaVuSans-6e" x="1657.613281"/>
     <use xlink:href="#DejaVuSans-45" x="1720.992188"/>
     <use xlink:href="#DejaVuSans-6e" x="1784.175781"/>
     <use xlink:href="#DejaVuSans-76" x="1847.554688"/>
     <use xlink:href="#DejaVuSans-20" x="1906.734375"/>
     <use xlink:href="#DejaVuSans-65" x="1938.521484"/>
     <use xlink:href="#DejaVuSans-6d" x="2000.044922"/>
     <use xlink:href="#DejaVuSans-61" x="2097.457031"/>
     <use xlink:href="#DejaVuSans-69" x="2158.736328"/>
     <use xlink:href="#DejaVuSans-6c" x="2186.519531"/>
     <use xlink:href="#DejaVuSans-20" x="2214.302734"/>
     <use xlink:href="#DejaVuSans-74" x="2246.089844"/>
     <use xlink:href="#DejaVuSans-72" x="2285.298828"/>
     <use xlink:href="#DejaVuSans-69" x="2326.412109"/>
     <use xlink:href="#DejaVuSans-61" x="2354.195312"/>
     <use xlink:href="#DejaVuSans-67" x="2415.474609"/>
     <use xlink:href="#DejaVuSans-65" x="2478.951172"/>
     <use xlink:href="#DejaVuSans-20" x="2540.474609"/>
     <use xlink:href="#DejaVuSans-62" x="2572.261719"/>
     <use xlink:href="#DejaVuSans-65" x="2635.738281"/>
     <use xlink:href="#DejaVuSans-6e" x="2697.261719"/>
     <use xlink:href="#DejaVuSans-63" x="2760.640625"/>
     <use xlink:href="#DejaVuSans-68" x="2815.621094"/>
     <use xlink:href="#DejaVuSans-6d" x="2879"/>
     <use xlink:href="#DejaVuSans-61" x="2976.412109"/>
     <use xlink:href="#DejaVuSans-72" x="3037.691406"/>
     <use xlink:href="#DejaVuSans-6b" x="3078.804688"/>
    </g>
   </g>
  </g>
 </g>
 <defs>
  <clipPath id="pb30b60f7bb">
   <rect x="7.2" y="7.2" width="736.56" height="421.344"/>
  </clipPath>
 </defs>
</svg>
