<?xml version="1.0" encoding="utf-8" standalone="no"?>
<!DOCTYPE svg PUBLIC "-//W3C//DTD SVG 1.1//EN"
  "http://www.w3.org/Graphics/SVG/1.1/DTD/svg11.dtd">
<svg xmlns:xlink="http://www.w3.org/1999/xlink" width="935.1pt" height="335.952pt" viewBox="0 0 935.1 335.952" xmlns="http://www.w3.org/2000/svg" version="1.1">
 <metadata>
  <rdf:RDF xmlns:dc="http://purl.org/dc/elements/1.1/" xmlns:cc="http://creativecommons.org/ns#" xmlns:rdf="http://www.w3.org/1999/02/22-rdf-syntax-ns#">
   <cc:Work>
    <dc:type rdf:resource="http://purl.org/dc/dcmitype/StillImage"/>
    <dc:date>2026-04-07T17:56:10.582937</dc:date>
    <dc:format>image/svg+xml</dc:format>
    <dc:creator>
     <cc:Agent>
      <dc:title>Matplotlib v3.9.4, https://matplotlib.org/</dc:title>
     </cc:Agent>
    </dc:creator>
   </cc:Work>
  </rdf:RDF>
 </metadata>
 <defs>
  <style type="text/css">*{stroke-linejoin: round; stroke-linecap: butt}</style>
 </defs>
 <g id="figure_1">
  <g id="patch_1">
   <path d="M 0 335.952 
L 935.1 335.952 
L 935.1 0 
L 0 0 
z
" style="fill: #ffffff"/>
  </g>
  <g id="axes_1">
   <g id="patch_2">
    <path d="M 42.1866 245.791584 
L 133.3359 245.791584 
Q 160.9569 245.791584 160.9569 236.145024 
L 160.9569 93.375936 
Q 160.9569 83.729376 133.3359 83.729376 
L 42.1866 83.729376 
Q 14.5656 83.729376 14.5656 93.375936 
L 14.5656 236.145024 
Q 14.5656 245.791584 42.1866 245.791584 
z
" clip-path="url(#p488afeeef1)" style="fill: #f7fbff; stroke: #2b6cb0; stroke-width: 1.3; stroke-linejoin: miter"/>
   </g>
   <g id="patch_3">
    <path d="M 151.906235 164.76048 
Q 161.416703 164.76048 169.138318 164.76048 
" clip-path="url(#p488afeeef1)" style="fill: none; stroke: #2b6cb0; stroke-width: 1.6; stroke-linecap: round"/>
    <path d="M 163.938318 162.16048 
L 169.138318 164.76048 
L 163.938318 167.36048 
z
" clip-path="url(#p488afeeef1)" style="fill: #2b6cb0; stroke: #2b6cb0; stroke-width: 1.6; stroke-linecap: round"/>
   </g>
   <g id="patch_4">
    <path d="M 189.4986 245.791584 
L 280.6479 245.791584 
Q 308.2689 245.791584 308.2689 236.145024 
L 308.2689 93.375936 
Q 308.2689 83.729376 280.6479 83.729376 
L 189.4986 83.729376 
Q 161.8776 83.729376 161.8776 93.375936 
L 161.8776 236.145024 
Q 161.8776 245.791584 189.4986 245.791584 
z
" clip-path="url(#p488afeeef1)" style="fill: #f7fbff; stroke: #2b6cb0; stroke-width: 1.3; stroke-linejoin: miter"/>
   </g>
   <g id="patch_5">
    <path d="M 299.218235 164.76048 
Q 308.728703 164.76048 316.450318 164.76048 
" clip-path="url(#p488afeeef1)" style="fill: none; stroke: #2b6cb0; stroke-width: 1.6; stroke-linecap: round"/>
    <path d="M 311.250318 162.16048 
L 316.450318 164.76048 
L 311.250318 167.36048 
z
" clip-path="url(#p488afeeef1)" style="fill: #2b6cb0; stroke: #2b6cb0; stroke-width: 1.6; stroke-linecap: round"/>
   </g>
   <g id="patch_6">
    <path d="M 336.8106 245.791584 
L 427.9599 245.791584 
Q 455.5809 245.791584 455.5809 236.145024 
L 455.5809 93.375936 
Q 455.5809 83.729376 427.9599 83.729376 
L 336.8106 83.729376 
Q 309.1896 83.729376 309.1896 93.375936 
L 309.1896 236.145024 
Q 309.1896 245.791584 336.8106 245.791584 
z
" clip-path="url(#p488afeeef1)" style="fill: #f7fbff; stroke: #2b6cb0; stroke-width: 1.3; stroke-linejoin: miter"/>
   </g>
   <g id="patch_7">
    <path d="M 446.530235 164.76048 
Q 456.040703 164.76048 463.762318 164.76048 
" clip-path="url(#p488afeeef1)" style="fill: none; stroke: #2b6cb0; stroke-width: 1.6; stroke-linecap: round"/>
    <path d="M 458.562318 162.16048 
L 463.762318 164.76048 
L 458.562318 167.36048 
z
" clip-path="url(#p488afeeef1)" style="fill: #2b6cb0; stroke: #2b6cb0; stroke-width: 1.6; stroke-linecap: round"/>
   </g>
   <g id="patch_8">
    <path d="M 484.1226 245.791584 
L 575.2719 245.791584 
Q 602.8929 245.791584 602.8929 236.145024 
L 602.8929 93.375936 
Q 602.8929 83.729376 575.2719 83.729376 
L 484.1226 83.729376 
Q 456.5016 83.729376 456.5016 93.375936 
L 456.5016 236.145024 
Q 456.5016 245.791584 484.1226 245.791584 
z
" clip-path="url(#p488afeeef1)" style="fill: #f7fbff; stroke: #2b6cb0; stroke-width: 1.3; stroke-linejoin: miter"/>
   </g>
   <g id="patch_9">
    <path d="M 593.844763 164.76048 
Q 612.561605 164.76048 629.489592 164.76048 
" clip-path="url(#p488afeeef1)" style="fill: none; stroke: #2b6cb0; stroke-width: 1.6; stroke-linecap: round"/>
    <path d="M 624.289592 162.16048 
L 629.489592 164.76048 
L 624.289592 167.36048 
z
" clip-path="url(#p488afeeef1)" style="fill: #2b6cb0; stroke: #2b6cb0; stroke-width: 1.6; stroke-linecap: round"/>
   </g>
   <g id="patch_10">
    <path d="M 649.8486 245.791584 
L 740.9979 245.791584 
Q 768.6189 245.791584 768.6189 236.145024 
L 768.6189 93.375936 
Q 768.6189 83.729376 740.9979 83.729376 
L 649.8486 83.729376 
Q 622.2276 83.729376 622.2276 93.375936 
L 622.2276 236.145024 
Q 622.2276 245.791584 649.8486 245.791584 
z
" clip-path="url(#p488afeeef1)" style="fill: #f7fbff; stroke: #2b6cb0; stroke-width: 1.3; stroke-linejoin: miter"/>
   </g>
   <g id="patch_11">
    <path d="M 759.568235 164.76048 
Q 769.078703 164.76048 776.800318 164.76048 
" clip-path="url(#p488afeeef1)" style="fill: none; stroke: #2b6cb0; stroke-width: 1.6; stroke-linecap: round"/>
    <path d="M 771.600318 162.16048 
L 776.800318 164.76048 
L 771.600318 167.36048 
z
" clip-path="url(#p488afeeef1)" style="fill: #2b6cb0; stroke: #2b6cb0; stroke-width: 1.6; stroke-linecap: round"/>
   </g>
   <g id="patch_12">
    <path d="M 797.1606 245.791584 
L 888.3099 245.791584 
Q 915.9309 245.791584 915.9309 236.145024 
L 915.9309 93.375936 
Q 915.9309 83.729376 888.3099 83.729376 
L 797.1606 83.729376 
Q 769.5396 83.729376 769.5396 93.375936 
L 769.5396 236.145024 
Q 769.5396 245.791584 797.1606 245.791584 
z
" clip-path="url(#p488afeeef1)" style="fill: #f7fbff; stroke: #2b6cb0; stroke-width: 1.3; stroke-linejoin: miter"/>
   </g>
   <g id="text_1">
    <!-- Incoming Email / -->
    <g style="fill: #1a365d" transform="translate(35.55 136.841261) scale(0.112 -0.112)">
     <defs>
      <path id="DejaVuSans-Bold-49" d="M 588 4666 
L 1791 4666 
L 1791 0 
L 588 0 
L 588 4666 
z
" transform="scale(0.015625)"/>
      <path id="DejaVuSans-Bold-6e" d="M 4056 2131 
L 4056 0 
L 2931 0 
L 2931 347 
L 2931 1631 
Q 2931 2084 2911 2256 
Q 2891 2428 2841 2509 
Q 2775 2619 2662 2680 
Q 2550 2741 2406 2741 
Q 2056 2741 1856 2470 
Q 1656 2200 1656 1722 
L 1656 0 
L 538 0 
L 538 3500 
L 1656 3500 
L 1656 2988 
Q 1909 3294 2193 3439 
Q 2478 3584 2822 3584 
Q 3428 3584 3742 3212 
Q 4056 2841 4056 2131 
z
" transform="scale(0.015625)"/>
      <path id="DejaVuSans-Bold-63" d="M 3366 3391 
L 3366 2478 
Q 3138 2634 2908 2709 
Q 2678 2784 2431 2784 
Q 1963 2784 1702 2511 
Q 1441 2238 1441 1747 
Q 1441 1256 1702 982 
Q 1963 709 2431 709 
Q 2694 709 2930 787 
Q 3166 866 3366 1019 
L 3366 103 
Q 3103 6 2833 -42 
Q 2563 -91 2291 -91 
Q 1344 -91 809 395 
Q 275 881 275 1747 
Q 275 2613 809 3098 
Q 1344 3584 2291 3584 
Q 2566 3584 2833 3536 
Q 3100 3488 3366 3391 
z
" transform="scale(0.015625)"/>
      <path id="DejaVuSans-Bold-6f" d="M 2203 2784 
Q 1831 2784 1636 2517 
Q 1441 2250 1441 1747 
Q 1441 1244 1636 976 
Q 1831 709 2203 709 
Q 2569 709 2762 976 
Q 2956 1244 2956 1747 
Q 2956 2250 2762 2517 
Q 2569 2784 2203 2784 
z
M 2203 3584 
Q 3106 3584 3614 3096 
Q 4122 2609 4122 1747 
Q 4122 884 3614 396 
Q 3106 -91 2203 -91 
Q 1297 -91 786 396 
Q 275 884 275 1747 
Q 275 2609 786 3096 
Q 1297 3584 2203 3584 
z
" transform="scale(0.015625)"/>
      <path id="DejaVuSans-Bold-6d" d="M 3781 2919 
Q 3994 3244 4286 3414 
Q 4578 3584 4928 3584 
Q 5531 3584 5847 3212 
Q 6163 2841 6163 2131 
L 6163 0 
L 5038 0 
L 5038 1825 
Q 5041 1866 5042 1909 
Q 5044 1953 5044 2034 
Q 5044 2406 4934 2573 
Q 4825 2741 4581 2741 
Q 4263 2741 4089 2478 
Q 3916 2216 3909 1719 
L 3909 0 
L 2784 0 
L 2784 1825 
Q 2784 2406 2684 2573 
Q 2584 2741 2328 2741 
Q 2006 2741 1831 2477 
Q 1656 2213 1656 1722 
L 1656 0 
L 531 0 
L 531 3500 
L 1656 3500 
L 1656 2988 
Q 1863 3284 2130 3434 
Q 2397 3584 2719 3584 
Q 3081 3584 3359 3409 
Q 3638 3234 3781 2919 
z
" transform="scale(0.015625)"/>
      <path id="DejaVuSans-Bold-69" d="M 538 3500 
L 1656 3500 
L 1656 0 
L 538 0 
L 538 3500 
z
M 538 4863 
L 1656 4863 
L 1656 3950 
L 538 3950 
L 538 4863 
z
" transform="scale(0.015625)"/>
      <path id="DejaVuSans-Bold-67" d="M 2919 594 
Q 2688 288 2409 144 
Q 2131 0 1766 0 
Q 1125 0 706 504 
Q 288 1009 288 1791 
Q 288 2575 706 3076 
Q 1125 3578 1766 3578 
Q 2131 3578 2409 3434 
Q 2688 3291 2919 2981 
L 2919 3500 
L 4044 3500 
L 4044 353 
Q 4044 -491 3511 -936 
Q 2978 -1381 1966 -1381 
Q 1638 -1381 1331 -1331 
Q 1025 -1281 716 -1178 
L 716 -306 
Q 1009 -475 1290 -558 
Q 1572 -641 1856 -641 
Q 2406 -641 2662 -400 
Q 2919 -159 2919 353 
L 2919 594 
z
M 2181 2772 
Q 1834 2772 1640 2515 
Q 1447 2259 1447 1791 
Q 1447 1309 1634 1061 
Q 1822 813 2181 813 
Q 2531 813 2725 1069 
Q 2919 1325 2919 1791 
Q 2919 2259 2725 2515 
Q 2531 2772 2181 2772 
z
" transform="scale(0.015625)"/>
      <path id="DejaVuSans-Bold-20" transform="scale(0.015625)"/>
      <path id="DejaVuSans-Bold-45" d="M 588 4666 
L 3834 4666 
L 3834 3756 
L 1791 3756 
L 1791 2888 
L 3713 2888 
L 3713 1978 
L 1791 1978 
L 1791 909 
L 3903 909 
L 3903 0 
L 588 0 
L 588 4666 
z
" transform="scale(0.015625)"/>
      <path id="DejaVuSans-Bold-61" d="M 2106 1575 
Q 1756 1575 1579 1456 
Q 1403 1338 1403 1106 
Q 1403 894 1545 773 
Q 1688 653 1941 653 
Q 2256 653 2472 879 
Q 2688 1106 2688 1447 
L 2688 1575 
L 2106 1575 
z
M 3816 1997 
L 3816 0 
L 2688 0 
L 2688 519 
Q 2463 200 2181 54 
Q 1900 -91 1497 -91 
Q 953 -91 614 226 
Q 275 544 275 1050 
Q 275 1666 698 1953 
Q 1122 2241 2028 2241 
L 2688 2241 
L 2688 2328 
Q 2688 2594 2478 2717 
Q 2269 2841 1825 2841 
Q 1466 2841 1156 2769 
Q 847 2697 581 2553 
L 581 3406 
Q 941 3494 1303 3539 
Q 1666 3584 2028 3584 
Q 2975 3584 3395 3211 
Q 3816 2838 3816 1997 
z
" transform="scale(0.015625)"/>
      <path id="DejaVuSans-Bold-6c" d="M 538 4863 
L 1656 4863 
L 1656 0 
L 538 0 
L 538 4863 
z
" transform="scale(0.015625)"/>
      <path id="DejaVuSans-Bold-2f" d="M 1644 4666 
L 2338 4666 
L 691 -594 
L 0 -594 
L 1644 4666 
z
" transform="scale(0.015625)"/>
     </defs>
     <use xlink:href="#DejaVuSans-Bold-49"/>
     <use xlink:href="#DejaVuSans-Bold-6e" x="37.207031"/>
     <use xlink:href="#DejaVuSans-Bold-63" x="108.398438"/>
     <use xlink:href="#DejaVuSans-Bold-6f" x="167.675781"/>
     <use xlink:href="#DejaVuSans-Bold-6d" x="236.376953"/>
     <use xlink:href="#DejaVuSans-Bold-69" x="340.576172"/>
     <use xlink:href="#DejaVuSans-Bold-6e" x="374.853516"/>
     <use xlink:href="#DejaVuSans-Bold-67" x="446.044922"/>
     <use xlink:href="#DejaVuSans-Bold-20" x="517.626953"/>
     <use xlink:href="#DejaVuSans-Bold-45" x="552.441406"/>
     <use xlink:href="#DejaVuSans-Bold-6d" x="620.751953"/>
     <use xlink:href="#DejaVuSans-Bold-61" x="724.951172"/>
     <use xlink:href="#DejaVuSans-Bold-69" x="792.431641"/>
     <use xlink:href="#DejaVuSans-Bold-6c" x="826.708984"/>
     <use xlink:href="#DejaVuSans-Bold-20" x="860.986328"/>
     <use xlink:href="#DejaVuSans-Bold-2f" x="895.800781"/>
    </g>
    <!-- Ticket -->
    <g style="fill: #1a365d" transform="translate(68.6495 149.470311) scale(0.112 -0.112)">
     <defs>
      <path id="DejaVuSans-Bold-54" d="M 31 4666 
L 4331 4666 
L 4331 3756 
L 2784 3756 
L 2784 0 
L 1581 0 
L 1581 3756 
L 31 3756 
L 31 4666 
z
" transform="scale(0.015625)"/>
      <path id="DejaVuSans-Bold-6b" d="M 538 4863 
L 1656 4863 
L 1656 2216 
L 2944 3500 
L 4244 3500 
L 2534 1894 
L 4378 0 
L 3022 0 
L 1656 1459 
L 1656 0 
L 538 0 
L 538 4863 
z
" transform="scale(0.015625)"/>
      <path id="DejaVuSans-Bold-65" d="M 4031 1759 
L 4031 1441 
L 1416 1441 
Q 1456 1047 1700 850 
Q 1944 653 2381 653 
Q 2734 653 3104 758 
Q 3475 863 3866 1075 
L 3866 213 
Q 3469 63 3072 -14 
Q 2675 -91 2278 -91 
Q 1328 -91 801 392 
Q 275 875 275 1747 
Q 275 2603 792 3093 
Q 1309 3584 2216 3584 
Q 3041 3584 3536 3087 
Q 4031 2591 4031 1759 
z
M 2881 2131 
Q 2881 2450 2695 2645 
Q 2509 2841 2209 2841 
Q 1884 2841 1681 2658 
Q 1478 2475 1428 2131 
L 2881 2131 
z
" transform="scale(0.015625)"/>
      <path id="DejaVuSans-Bold-74" d="M 1759 4494 
L 1759 3500 
L 2913 3500 
L 2913 2700 
L 1759 2700 
L 1759 1216 
Q 1759 972 1856 886 
Q 1953 800 2241 800 
L 2816 800 
L 2816 0 
L 1856 0 
Q 1194 0 917 276 
Q 641 553 641 1216 
L 641 2700 
L 84 2700 
L 84 3500 
L 641 3500 
L 641 4494 
L 1759 4494 
z
" transform="scale(0.015625)"/>
     </defs>
     <use xlink:href="#DejaVuSans-Bold-54"/>
     <use xlink:href="#DejaVuSans-Bold-69" x="68.212891"/>
     <use xlink:href="#DejaVuSans-Bold-63" x="102.490234"/>
     <use xlink:href="#DejaVuSans-Bold-6b" x="161.767578"/>
     <use xlink:href="#DejaVuSans-Bold-65" x="225.646484"/>
     <use xlink:href="#DejaVuSans-Bold-74" x="293.46875"/>
    </g>
   </g>
   <g id="text_2">
    <!-- User request intake -->
    <g style="fill: #2d3748" transform="translate(43.705547 195.02601) scale(0.09 -0.09)">
     <defs>
      <path id="DejaVuSans-55" d="M 556 4666 
L 1191 4666 
L 1191 1831 
Q 1191 1081 1462 751 
Q 1734 422 2344 422 
Q 2950 422 3222 751 
Q 3494 1081 3494 1831 
L 3494 4666 
L 4128 4666 
L 4128 1753 
Q 4128 841 3676 375 
Q 3225 -91 2344 -91 
Q 1459 -91 1007 375 
Q 556 841 556 1753 
L 556 4666 
z
" transform="scale(0.015625)"/>
      <path id="DejaVuSans-73" d="M 2834 3397 
L 2834 2853 
Q 2591 2978 2328 3040 
Q 2066 3103 1784 3103 
Q 1356 3103 1142 2972 
Q 928 2841 928 2578 
Q 928 2378 1081 2264 
Q 1234 2150 1697 2047 
L 1894 2003 
Q 2506 1872 2764 1633 
Q 3022 1394 3022 966 
Q 3022 478 2636 193 
Q 2250 -91 1575 -91 
Q 1294 -91 989 -36 
Q 684 19 347 128 
L 347 722 
Q 666 556 975 473 
Q 1284 391 1588 391 
Q 1994 391 2212 530 
Q 2431 669 2431 922 
Q 2431 1156 2273 1281 
Q 2116 1406 1581 1522 
L 1381 1569 
Q 847 1681 609 1914 
Q 372 2147 372 2553 
Q 372 3047 722 3315 
Q 1072 3584 1716 3584 
Q 2034 3584 2315 3537 
Q 2597 3491 2834 3397 
z
" transform="scale(0.015625)"/>
      <path id="DejaVuSans-65" d="M 3597 1894 
L 3597 1613 
L 953 1613 
Q 991 1019 1311 708 
Q 1631 397 2203 397 
Q 2534 397 2845 478 
Q 3156 559 3463 722 
L 3463 178 
Q 3153 47 2828 -22 
Q 2503 -91 2169 -91 
Q 1331 -91 842 396 
Q 353 884 353 1716 
Q 353 2575 817 3079 
Q 1281 3584 2069 3584 
Q 2775 3584 3186 3129 
Q 3597 2675 3597 1894 
z
M 3022 2063 
Q 3016 2534 2758 2815 
Q 2500 3097 2075 3097 
Q 1594 3097 1305 2825 
Q 1016 2553 972 2059 
L 3022 2063 
z
" transform="scale(0.015625)"/>
      <path id="DejaVuSans-72" d="M 2631 2963 
Q 2534 3019 2420 3045 
Q 2306 3072 2169 3072 
Q 1681 3072 1420 2755 
Q 1159 2438 1159 1844 
L 1159 0 
L 581 0 
L 581 3500 
L 1159 3500 
L 1159 2956 
Q 1341 3275 1631 3429 
Q 1922 3584 2338 3584 
Q 2397 3584 2469 3576 
Q 2541 3569 2628 3553 
L 2631 2963 
z
" transform="scale(0.015625)"/>
      <path id="DejaVuSans-20" transform="scale(0.015625)"/>
      <path id="DejaVuSans-71" d="M 947 1747 
Q 947 1113 1208 752 
Q 1469 391 1925 391 
Q 2381 391 2643 752 
Q 2906 1113 2906 1747 
Q 2906 2381 2643 2742 
Q 2381 3103 1925 3103 
Q 1469 3103 1208 2742 
Q 947 2381 947 1747 
z
M 2906 525 
Q 2725 213 2448 61 
Q 2172 -91 1784 -91 
Q 1150 -91 751 415 
Q 353 922 353 1747 
Q 353 2572 751 3078 
Q 1150 3584 1784 3584 
Q 2172 3584 2448 3432 
Q 2725 3281 2906 2969 
L 2906 3500 
L 3481 3500 
L 3481 -1331 
L 2906 -1331 
L 2906 525 
z
" transform="scale(0.015625)"/>
      <path id="DejaVuSans-75" d="M 544 1381 
L 544 3500 
L 1119 3500 
L 1119 1403 
Q 1119 906 1312 657 
Q 1506 409 1894 409 
Q 2359 409 2629 706 
Q 2900 1003 2900 1516 
L 2900 3500 
L 3475 3500 
L 3475 0 
L 2900 0 
L 2900 538 
Q 2691 219 2414 64 
Q 2138 -91 1772 -91 
Q 1169 -91 856 284 
Q 544 659 544 1381 
z
M 1991 3584 
L 1991 3584 
z
" transform="scale(0.015625)"/>
      <path id="DejaVuSans-74" d="M 1172 4494 
L 1172 3500 
L 2356 3500 
L 2356 3053 
L 1172 3053 
L 1172 1153 
Q 1172 725 1289 603 
Q 1406 481 1766 481 
L 2356 481 
L 2356 0 
L 1766 0 
Q 1100 0 847 248 
Q 594 497 594 1153 
L 594 3053 
L 172 3053 
L 172 3500 
L 594 3500 
L 594 4494 
L 1172 4494 
z
" transform="scale(0.015625)"/>
      <path id="DejaVuSans-69" d="M 603 3500 
L 1178 3500 
L 1178 0 
L 603 0 
L 603 3500 
z
M 603 4863 
L 1178 4863 
L 1178 4134 
L 603 4134 
L 603 4863 
z
" transform="scale(0.015625)"/>
      <path id="DejaVuSans-6e" d="M 3513 2113 
L 3513 0 
L 2938 0 
L 2938 2094 
Q 2938 2591 2744 2837 
Q 2550 3084 2163 3084 
Q 1697 3084 1428 2787 
Q 1159 2491 1159 1978 
L 1159 0 
L 581 0 
L 581 3500 
L 1159 3500 
L 1159 2956 
Q 1366 3272 1645 3428 
Q 1925 3584 2291 3584 
Q 2894 3584 3203 3211 
Q 3513 2838 3513 2113 
z
" transform="scale(0.015625)"/>
      <path id="DejaVuSans-61" d="M 2194 1759 
Q 1497 1759 1228 1600 
Q 959 1441 959 1056 
Q 959 750 1161 570 
Q 1363 391 1709 391 
Q 2188 391 2477 730 
Q 2766 1069 2766 1631 
L 2766 1759 
L 2194 1759 
z
M 3341 1997 
L 3341 0 
L 2766 0 
L 2766 531 
Q 2569 213 2275 61 
Q 1981 -91 1556 -91 
Q 1019 -91 701 211 
Q 384 513 384 1019 
Q 384 1609 779 1909 
Q 1175 2209 1959 2209 
L 2766 2209 
L 2766 2266 
Q 2766 2663 2505 2880 
Q 2244 3097 1772 3097 
Q 1472 3097 1187 3025 
Q 903 2953 641 2809 
L 641 3341 
Q 956 3463 1253 3523 
Q 1550 3584 1831 3584 
Q 2591 3584 2966 3190 
Q 3341 2797 3341 1997 
z
" transform="scale(0.015625)"/>
      <path id="DejaVuSans-6b" d="M 581 4863 
L 1159 4863 
L 1159 1991 
L 2875 3500 
L 3609 3500 
L 1753 1863 
L 3688 0 
L 2938 0 
L 1159 1709 
L 1159 0 
L 581 0 
L 581 4863 
z
" transform="scale(0.015625)"/>
     </defs>
     <use xlink:href="#DejaVuSans-55"/>
     <use xlink:href="#DejaVuSans-73" x="73.193359"/>
     <use xlink:href="#DejaVuSans-65" x="125.292969"/>
     <use xlink:href="#DejaVuSans-72" x="186.816406"/>
     <use xlink:href="#DejaVuSans-20" x="227.929688"/>
     <use xlink:href="#DejaVuSans-72" x="259.716797"/>
     <use xlink:href="#DejaVuSans-65" x="298.580078"/>
     <use xlink:href="#DejaVuSans-71" x="360.103516"/>
     <use xlink:href="#DejaVuSans-75" x="423.580078"/>
     <use xlink:href="#DejaVuSans-65" x="486.958984"/>
     <use xlink:href="#DejaVuSans-73" x="548.482422"/>
     <use xlink:href="#DejaVuSans-74" x="600.582031"/>
     <use xlink:href="#DejaVuSans-20" x="639.791016"/>
     <use xlink:href="#DejaVuSans-69" x="671.578125"/>
     <use xlink:href="#DejaVuSans-6e" x="699.361328"/>
     <use xlink:href="#DejaVuSans-74" x="762.740234"/>
     <use xlink:href="#DejaVuSans-61" x="801.949219"/>
     <use xlink:href="#DejaVuSans-6b" x="863.228516"/>
     <use xlink:href="#DejaVuSans-65" x="917.513672"/>
    </g>
   </g>
   <g id="text_3">
    <!-- Task Selector -->
    <g style="fill: #1a365d" transform="translate(193.033875 143.155786) scale(0.112 -0.112)">
     <defs>
      <path id="DejaVuSans-Bold-73" d="M 3272 3391 
L 3272 2541 
Q 2913 2691 2578 2766 
Q 2244 2841 1947 2841 
Q 1628 2841 1473 2761 
Q 1319 2681 1319 2516 
Q 1319 2381 1436 2309 
Q 1553 2238 1856 2203 
L 2053 2175 
Q 2913 2066 3209 1816 
Q 3506 1566 3506 1031 
Q 3506 472 3093 190 
Q 2681 -91 1863 -91 
Q 1516 -91 1145 -36 
Q 775 19 384 128 
L 384 978 
Q 719 816 1070 734 
Q 1422 653 1784 653 
Q 2113 653 2278 743 
Q 2444 834 2444 1013 
Q 2444 1163 2330 1236 
Q 2216 1309 1875 1350 
L 1678 1375 
Q 931 1469 631 1722 
Q 331 1975 331 2491 
Q 331 3047 712 3315 
Q 1094 3584 1881 3584 
Q 2191 3584 2531 3537 
Q 2872 3491 3272 3391 
z
" transform="scale(0.015625)"/>
      <path id="DejaVuSans-Bold-53" d="M 3834 4519 
L 3834 3531 
Q 3450 3703 3084 3790 
Q 2719 3878 2394 3878 
Q 1963 3878 1756 3759 
Q 1550 3641 1550 3391 
Q 1550 3203 1689 3098 
Q 1828 2994 2194 2919 
L 2706 2816 
Q 3484 2659 3812 2340 
Q 4141 2022 4141 1434 
Q 4141 663 3683 286 
Q 3225 -91 2284 -91 
Q 1841 -91 1394 -6 
Q 947 78 500 244 
L 500 1259 
Q 947 1022 1364 901 
Q 1781 781 2169 781 
Q 2563 781 2772 912 
Q 2981 1044 2981 1288 
Q 2981 1506 2839 1625 
Q 2697 1744 2272 1838 
L 1806 1941 
Q 1106 2091 782 2419 
Q 459 2747 459 3303 
Q 459 4000 909 4375 
Q 1359 4750 2203 4750 
Q 2588 4750 2994 4692 
Q 3400 4634 3834 4519 
z
" transform="scale(0.015625)"/>
      <path id="DejaVuSans-Bold-72" d="M 3138 2547 
Q 2991 2616 2845 2648 
Q 2700 2681 2553 2681 
Q 2122 2681 1889 2404 
Q 1656 2128 1656 1613 
L 1656 0 
L 538 0 
L 538 3500 
L 1656 3500 
L 1656 2925 
Q 1872 3269 2151 3426 
Q 2431 3584 2822 3584 
Q 2878 3584 2943 3579 
Q 3009 3575 3134 3559 
L 3138 2547 
z
" transform="scale(0.015625)"/>
     </defs>
     <use xlink:href="#DejaVuSans-Bold-54"/>
     <use xlink:href="#DejaVuSans-Bold-61" x="55.337891"/>
     <use xlink:href="#DejaVuSans-Bold-73" x="122.818359"/>
     <use xlink:href="#DejaVuSans-Bold-6b" x="182.339844"/>
     <use xlink:href="#DejaVuSans-Bold-20" x="248.84375"/>
     <use xlink:href="#DejaVuSans-Bold-53" x="283.658203"/>
     <use xlink:href="#DejaVuSans-Bold-65" x="355.679688"/>
     <use xlink:href="#DejaVuSans-Bold-6c" x="423.501953"/>
     <use xlink:href="#DejaVuSans-Bold-65" x="457.779297"/>
     <use xlink:href="#DejaVuSans-Bold-63" x="525.601562"/>
     <use xlink:href="#DejaVuSans-Bold-74" x="584.878906"/>
     <use xlink:href="#DejaVuSans-Bold-6f" x="632.681641"/>
     <use xlink:href="#DejaVuSans-Bold-72" x="701.382812"/>
    </g>
   </g>
   <g id="text_4">
    <!-- task_1 / task_2 / task_3 -->
    <g style="fill: #2d3748" transform="translate(182.565984 194.900854) scale(0.09 -0.09)">
     <defs>
      <path id="DejaVuSans-5f" d="M 3263 -1063 
L 3263 -1509 
L -63 -1509 
L -63 -1063 
L 3263 -1063 
z
" transform="scale(0.015625)"/>
      <path id="DejaVuSans-31" d="M 794 531 
L 1825 531 
L 1825 4091 
L 703 3866 
L 703 4441 
L 1819 4666 
L 2450 4666 
L 2450 531 
L 3481 531 
L 3481 0 
L 794 0 
L 794 531 
z
" transform="scale(0.015625)"/>
      <path id="DejaVuSans-2f" d="M 1625 4666 
L 2156 4666 
L 531 -594 
L 0 -594 
L 1625 4666 
z
" transform="scale(0.015625)"/>
      <path id="DejaVuSans-32" d="M 1228 531 
L 3431 531 
L 3431 0 
L 469 0 
L 469 531 
Q 828 903 1448 1529 
Q 2069 2156 2228 2338 
Q 2531 2678 2651 2914 
Q 2772 3150 2772 3378 
Q 2772 3750 2511 3984 
Q 2250 4219 1831 4219 
Q 1534 4219 1204 4116 
Q 875 4013 500 3803 
L 500 4441 
Q 881 4594 1212 4672 
Q 1544 4750 1819 4750 
Q 2544 4750 2975 4387 
Q 3406 4025 3406 3419 
Q 3406 3131 3298 2873 
Q 3191 2616 2906 2266 
Q 2828 2175 2409 1742 
Q 1991 1309 1228 531 
z
" transform="scale(0.015625)"/>
      <path id="DejaVuSans-33" d="M 2597 2516 
Q 3050 2419 3304 2112 
Q 3559 1806 3559 1356 
Q 3559 666 3084 287 
Q 2609 -91 1734 -91 
Q 1441 -91 1130 -33 
Q 819 25 488 141 
L 488 750 
Q 750 597 1062 519 
Q 1375 441 1716 441 
Q 2309 441 2620 675 
Q 2931 909 2931 1356 
Q 2931 1769 2642 2001 
Q 2353 2234 1838 2234 
L 1294 2234 
L 1294 2753 
L 1863 2753 
Q 2328 2753 2575 2939 
Q 2822 3125 2822 3475 
Q 2822 3834 2567 4026 
Q 2313 4219 1838 4219 
Q 1578 4219 1281 4162 
Q 984 4106 628 3988 
L 628 4550 
Q 988 4650 1302 4700 
Q 1616 4750 1894 4750 
Q 2613 4750 3031 4423 
Q 3450 4097 3450 3541 
Q 3450 3153 3228 2886 
Q 3006 2619 2597 2516 
z
" transform="scale(0.015625)"/>
     </defs>
     <use xlink:href="#DejaVuSans-74"/>
     <use xlink:href="#DejaVuSans-61" x="39.208984"/>
     <use xlink:href="#DejaVuSans-73" x="100.488281"/>
     <use xlink:href="#DejaVuSans-6b" x="152.587891"/>
     <use xlink:href="#DejaVuSans-5f" x="210.498047"/>
     <use xlink:href="#DejaVuSans-31" x="260.498047"/>
     <use xlink:href="#DejaVuSans-20" x="324.121094"/>
     <use xlink:href="#DejaVuSans-2f" x="355.908203"/>
     <use xlink:href="#DejaVuSans-20" x="389.599609"/>
     <use xlink:href="#DejaVuSans-74" x="421.386719"/>
     <use xlink:href="#DejaVuSans-61" x="460.595703"/>
     <use xlink:href="#DejaVuSans-73" x="521.875"/>
     <use xlink:href="#DejaVuSans-6b" x="573.974609"/>
     <use xlink:href="#DejaVuSans-5f" x="631.884766"/>
     <use xlink:href="#DejaVuSans-32" x="681.884766"/>
     <use xlink:href="#DejaVuSans-20" x="745.507812"/>
     <use xlink:href="#DejaVuSans-2f" x="777.294922"/>
     <use xlink:href="#DejaVuSans-20" x="810.986328"/>
     <use xlink:href="#DejaVuSans-74" x="842.773438"/>
     <use xlink:href="#DejaVuSans-61" x="881.982422"/>
     <use xlink:href="#DejaVuSans-73" x="943.261719"/>
     <use xlink:href="#DejaVuSans-6b" x="995.361328"/>
     <use xlink:href="#DejaVuSans-5f" x="1053.271484"/>
     <use xlink:href="#DejaVuSans-33" x="1103.271484"/>
    </g>
   </g>
   <g id="text_5">
    <!-- Agent Action -->
    <g style="fill: #1a365d" transform="translate(341.548125 143.112036) scale(0.112 -0.112)">
     <defs>
      <path id="DejaVuSans-Bold-41" d="M 3419 850 
L 1538 850 
L 1241 0 
L 31 0 
L 1759 4666 
L 3194 4666 
L 4922 0 
L 3713 0 
L 3419 850 
z
M 1838 1716 
L 3116 1716 
L 2478 3572 
L 1838 1716 
z
" transform="scale(0.015625)"/>
     </defs>
     <use xlink:href="#DejaVuSans-Bold-41"/>
     <use xlink:href="#DejaVuSans-Bold-67" x="77.392578"/>
     <use xlink:href="#DejaVuSans-Bold-65" x="148.974609"/>
     <use xlink:href="#DejaVuSans-Bold-6e" x="216.796875"/>
     <use xlink:href="#DejaVuSans-Bold-74" x="287.988281"/>
     <use xlink:href="#DejaVuSans-Bold-20" x="335.791016"/>
     <use xlink:href="#DejaVuSans-Bold-41" x="370.605469"/>
     <use xlink:href="#DejaVuSans-Bold-63" x="447.998047"/>
     <use xlink:href="#DejaVuSans-Bold-74" x="507.275391"/>
     <use xlink:href="#DejaVuSans-Bold-69" x="555.078125"/>
     <use xlink:href="#DejaVuSans-Bold-6f" x="589.355469"/>
     <use xlink:href="#DejaVuSans-Bold-6e" x="658.056641"/>
    </g>
   </g>
   <g id="text_6">
    <!-- Manual or auto-step -->
    <g style="fill: #2d3748" transform="translate(337.000641 195.02601) scale(0.09 -0.09)">
     <defs>
      <path id="DejaVuSans-4d" d="M 628 4666 
L 1569 4666 
L 2759 1491 
L 3956 4666 
L 4897 4666 
L 4897 0 
L 4281 0 
L 4281 4097 
L 3078 897 
L 2444 897 
L 1241 4097 
L 1241 0 
L 628 0 
L 628 4666 
z
" transform="scale(0.015625)"/>
      <path id="DejaVuSans-6c" d="M 603 4863 
L 1178 4863 
L 1178 0 
L 603 0 
L 603 4863 
z
" transform="scale(0.015625)"/>
      <path id="DejaVuSans-6f" d="M 1959 3097 
Q 1497 3097 1228 2736 
Q 959 2375 959 1747 
Q 959 1119 1226 758 
Q 1494 397 1959 397 
Q 2419 397 2687 759 
Q 2956 1122 2956 1747 
Q 2956 2369 2687 2733 
Q 2419 3097 1959 3097 
z
M 1959 3584 
Q 2709 3584 3137 3096 
Q 3566 2609 3566 1747 
Q 3566 888 3137 398 
Q 2709 -91 1959 -91 
Q 1206 -91 779 398 
Q 353 888 353 1747 
Q 353 2609 779 3096 
Q 1206 3584 1959 3584 
z
" transform="scale(0.015625)"/>
      <path id="DejaVuSans-2d" d="M 313 2009 
L 1997 2009 
L 1997 1497 
L 313 1497 
L 313 2009 
z
" transform="scale(0.015625)"/>
      <path id="DejaVuSans-70" d="M 1159 525 
L 1159 -1331 
L 581 -1331 
L 581 3500 
L 1159 3500 
L 1159 2969 
Q 1341 3281 1617 3432 
Q 1894 3584 2278 3584 
Q 2916 3584 3314 3078 
Q 3713 2572 3713 1747 
Q 3713 922 3314 415 
Q 2916 -91 2278 -91 
Q 1894 -91 1617 61 
Q 1341 213 1159 525 
z
M 3116 1747 
Q 3116 2381 2855 2742 
Q 2594 3103 2138 3103 
Q 1681 3103 1420 2742 
Q 1159 2381 1159 1747 
Q 1159 1113 1420 752 
Q 1681 391 2138 391 
Q 2594 391 2855 752 
Q 3116 1113 3116 1747 
z
" transform="scale(0.015625)"/>
     </defs>
     <use xlink:href="#DejaVuSans-4d"/>
     <use xlink:href="#DejaVuSans-61" x="86.279297"/>
     <use xlink:href="#DejaVuSans-6e" x="147.558594"/>
     <use xlink:href="#DejaVuSans-75" x="210.9375"/>
     <use xlink:href="#DejaVuSans-61" x="274.316406"/>
     <use xlink:href="#DejaVuSans-6c" x="335.595703"/>
     <use xlink:href="#DejaVuSans-20" x="363.378906"/>
     <use xlink:href="#DejaVuSans-6f" x="395.166016"/>
     <use xlink:href="#DejaVuSans-72" x="456.347656"/>
     <use xlink:href="#DejaVuSans-20" x="497.460938"/>
     <use xlink:href="#DejaVuSans-61" x="529.248047"/>
     <use xlink:href="#DejaVuSans-75" x="590.527344"/>
     <use xlink:href="#DejaVuSans-74" x="653.90625"/>
     <use xlink:href="#DejaVuSans-6f" x="693.115234"/>
     <use xlink:href="#DejaVuSans-2d" x="756.171875"/>
     <use xlink:href="#DejaVuSans-73" x="792.255859"/>
     <use xlink:href="#DejaVuSans-74" x="844.355469"/>
     <use xlink:href="#DejaVuSans-65" x="883.564453"/>
     <use xlink:href="#DejaVuSans-70" x="945.087891"/>
    </g>
   </g>
   <g id="text_7">
    <!-- Env Step + Tools -->
    <g style="fill: #1a365d" transform="translate(477.15175 143.155786) scale(0.112 -0.112)">
     <defs>
      <path id="DejaVuSans-Bold-76" d="M 97 3500 
L 1216 3500 
L 2088 1081 
L 2956 3500 
L 4078 3500 
L 2700 0 
L 1472 0 
L 97 3500 
z
" transform="scale(0.015625)"/>
      <path id="DejaVuSans-Bold-70" d="M 1656 506 
L 1656 -1331 
L 538 -1331 
L 538 3500 
L 1656 3500 
L 1656 2988 
Q 1888 3294 2169 3439 
Q 2450 3584 2816 3584 
Q 3463 3584 3878 3070 
Q 4294 2556 4294 1747 
Q 4294 938 3878 423 
Q 3463 -91 2816 -91 
Q 2450 -91 2169 54 
Q 1888 200 1656 506 
z
M 2400 2772 
Q 2041 2772 1848 2508 
Q 1656 2244 1656 1747 
Q 1656 1250 1848 986 
Q 2041 722 2400 722 
Q 2759 722 2948 984 
Q 3138 1247 3138 1747 
Q 3138 2247 2948 2509 
Q 2759 2772 2400 2772 
z
" transform="scale(0.015625)"/>
      <path id="DejaVuSans-Bold-2b" d="M 3053 4013 
L 3053 2375 
L 4684 2375 
L 4684 1638 
L 3053 1638 
L 3053 0 
L 2309 0 
L 2309 1638 
L 678 1638 
L 678 2375 
L 2309 2375 
L 2309 4013 
L 3053 4013 
z
" transform="scale(0.015625)"/>
     </defs>
     <use xlink:href="#DejaVuSans-Bold-45"/>
     <use xlink:href="#DejaVuSans-Bold-6e" x="68.310547"/>
     <use xlink:href="#DejaVuSans-Bold-76" x="139.501953"/>
     <use xlink:href="#DejaVuSans-Bold-20" x="204.6875"/>
     <use xlink:href="#DejaVuSans-Bold-53" x="239.501953"/>
     <use xlink:href="#DejaVuSans-Bold-74" x="311.523438"/>
     <use xlink:href="#DejaVuSans-Bold-65" x="359.326172"/>
     <use xlink:href="#DejaVuSans-Bold-70" x="427.148438"/>
     <use xlink:href="#DejaVuSans-Bold-20" x="498.730469"/>
     <use xlink:href="#DejaVuSans-Bold-2b" x="533.544922"/>
     <use xlink:href="#DejaVuSans-Bold-20" x="617.333984"/>
     <use xlink:href="#DejaVuSans-Bold-54" x="652.148438"/>
     <use xlink:href="#DejaVuSans-Bold-6f" x="707.111328"/>
     <use xlink:href="#DejaVuSans-Bold-6f" x="775.8125"/>
     <use xlink:href="#DejaVuSans-Bold-6c" x="844.513672"/>
     <use xlink:href="#DejaVuSans-Bold-73" x="878.791016"/>
    </g>
   </g>
   <g id="text_8">
    <!-- Policy, Order DB, Inventory, -->
    <g style="fill: #2d3748" transform="translate(467.3385 189.81603) scale(0.09 -0.09)">
     <defs>
      <path id="DejaVuSans-50" d="M 1259 4147 
L 1259 2394 
L 2053 2394 
Q 2494 2394 2734 2622 
Q 2975 2850 2975 3272 
Q 2975 3691 2734 3919 
Q 2494 4147 2053 4147 
L 1259 4147 
z
M 628 4666 
L 2053 4666 
Q 2838 4666 3239 4311 
Q 3641 3956 3641 3272 
Q 3641 2581 3239 2228 
Q 2838 1875 2053 1875 
L 1259 1875 
L 1259 0 
L 628 0 
L 628 4666 
z
" transform="scale(0.015625)"/>
      <path id="DejaVuSans-63" d="M 3122 3366 
L 3122 2828 
Q 2878 2963 2633 3030 
Q 2388 3097 2138 3097 
Q 1578 3097 1268 2742 
Q 959 2388 959 1747 
Q 959 1106 1268 751 
Q 1578 397 2138 397 
Q 2388 397 2633 464 
Q 2878 531 3122 666 
L 3122 134 
Q 2881 22 2623 -34 
Q 2366 -91 2075 -91 
Q 1284 -91 818 406 
Q 353 903 353 1747 
Q 353 2603 823 3093 
Q 1294 3584 2113 3584 
Q 2378 3584 2631 3529 
Q 2884 3475 3122 3366 
z
" transform="scale(0.015625)"/>
      <path id="DejaVuSans-79" d="M 2059 -325 
Q 1816 -950 1584 -1140 
Q 1353 -1331 966 -1331 
L 506 -1331 
L 506 -850 
L 844 -850 
Q 1081 -850 1212 -737 
Q 1344 -625 1503 -206 
L 1606 56 
L 191 3500 
L 800 3500 
L 1894 763 
L 2988 3500 
L 3597 3500 
L 2059 -325 
z
" transform="scale(0.015625)"/>
      <path id="DejaVuSans-2c" d="M 750 794 
L 1409 794 
L 1409 256 
L 897 -744 
L 494 -744 
L 750 256 
L 750 794 
z
" transform="scale(0.015625)"/>
      <path id="DejaVuSans-4f" d="M 2522 4238 
Q 1834 4238 1429 3725 
Q 1025 3213 1025 2328 
Q 1025 1447 1429 934 
Q 1834 422 2522 422 
Q 3209 422 3611 934 
Q 4013 1447 4013 2328 
Q 4013 3213 3611 3725 
Q 3209 4238 2522 4238 
z
M 2522 4750 
Q 3503 4750 4090 4092 
Q 4678 3434 4678 2328 
Q 4678 1225 4090 567 
Q 3503 -91 2522 -91 
Q 1538 -91 948 565 
Q 359 1222 359 2328 
Q 359 3434 948 4092 
Q 1538 4750 2522 4750 
z
" transform="scale(0.015625)"/>
      <path id="DejaVuSans-64" d="M 2906 2969 
L 2906 4863 
L 3481 4863 
L 3481 0 
L 2906 0 
L 2906 525 
Q 2725 213 2448 61 
Q 2172 -91 1784 -91 
Q 1150 -91 751 415 
Q 353 922 353 1747 
Q 353 2572 751 3078 
Q 1150 3584 1784 3584 
Q 2172 3584 2448 3432 
Q 2725 3281 2906 2969 
z
M 947 1747 
Q 947 1113 1208 752 
Q 1469 391 1925 391 
Q 2381 391 2643 752 
Q 2906 1113 2906 1747 
Q 2906 2381 2643 2742 
Q 2381 3103 1925 3103 
Q 1469 3103 1208 2742 
Q 947 2381 947 1747 
z
" transform="scale(0.015625)"/>
      <path id="DejaVuSans-44" d="M 1259 4147 
L 1259 519 
L 2022 519 
Q 2988 519 3436 956 
Q 3884 1394 3884 2338 
Q 3884 3275 3436 3711 
Q 2988 4147 2022 4147 
L 1259 4147 
z
M 628 4666 
L 1925 4666 
Q 3281 4666 3915 4102 
Q 4550 3538 4550 2338 
Q 4550 1131 3912 565 
Q 3275 0 1925 0 
L 628 0 
L 628 4666 
z
" transform="scale(0.015625)"/>
      <path id="DejaVuSans-42" d="M 1259 2228 
L 1259 519 
L 2272 519 
Q 2781 519 3026 730 
Q 3272 941 3272 1375 
Q 3272 1813 3026 2020 
Q 2781 2228 2272 2228 
L 1259 2228 
z
M 1259 4147 
L 1259 2741 
L 2194 2741 
Q 2656 2741 2882 2914 
Q 3109 3088 3109 3444 
Q 3109 3797 2882 3972 
Q 2656 4147 2194 4147 
L 1259 4147 
z
M 628 4666 
L 2241 4666 
Q 2963 4666 3353 4366 
Q 3744 4066 3744 3513 
Q 3744 3084 3544 2831 
Q 3344 2578 2956 2516 
Q 3422 2416 3680 2098 
Q 3938 1781 3938 1306 
Q 3938 681 3513 340 
Q 3088 0 2303 0 
L 628 0 
L 628 4666 
z
" transform="scale(0.015625)"/>
      <path id="DejaVuSans-49" d="M 628 4666 
L 1259 4666 
L 1259 0 
L 628 0 
L 628 4666 
z
" transform="scale(0.015625)"/>
      <path id="DejaVuSans-76" d="M 191 3500 
L 800 3500 
L 1894 563 
L 2988 3500 
L 3597 3500 
L 2284 0 
L 1503 0 
L 191 3500 
z
" transform="scale(0.015625)"/>
     </defs>
     <use xlink:href="#DejaVuSans-50"/>
     <use xlink:href="#DejaVuSans-6f" x="56.677734"/>
     <use xlink:href="#DejaVuSans-6c" x="117.859375"/>
     <use xlink:href="#DejaVuSans-69" x="145.642578"/>
     <use xlink:href="#DejaVuSans-63" x="173.425781"/>
     <use xlink:href="#DejaVuSans-79" x="228.40625"/>
     <use xlink:href="#DejaVuSans-2c" x="287.585938"/>
     <use xlink:href="#DejaVuSans-20" x="319.373047"/>
     <use xlink:href="#DejaVuSans-4f" x="351.160156"/>
     <use xlink:href="#DejaVuSans-72" x="429.871094"/>
     <use xlink:href="#DejaVuSans-64" x="469.234375"/>
     <use xlink:href="#DejaVuSans-65" x="532.710938"/>
     <use xlink:href="#DejaVuSans-72" x="594.234375"/>
     <use xlink:href="#DejaVuSans-20" x="635.347656"/>
     <use xlink:href="#DejaVuSans-44" x="667.134766"/>
     <use xlink:href="#DejaVuSans-42" x="744.136719"/>
     <use xlink:href="#DejaVuSans-2c" x="812.740234"/>
     <use xlink:href="#DejaVuSans-20" x="844.527344"/>
     <use xlink:href="#DejaVuSans-49" x="876.314453"/>
     <use xlink:href="#DejaVuSans-6e" x="905.806641"/>
     <use xlink:href="#DejaVuSans-76" x="969.185547"/>
     <use xlink:href="#DejaVuSans-65" x="1028.365234"/>
     <use xlink:href="#DejaVuSans-6e" x="1089.888672"/>
     <use xlink:href="#DejaVuSans-74" x="1153.267578"/>
     <use xlink:href="#DejaVuSans-6f" x="1192.476562"/>
     <use xlink:href="#DejaVuSans-72" x="1253.658203"/>
     <use xlink:href="#DejaVuSans-79" x="1294.771484"/>
     <use xlink:href="#DejaVuSans-2c" x="1353.951172"/>
    </g>
    <!-- HF Space -->
    <g style="fill: #2d3748" transform="translate(508.580297 200.235991) scale(0.09 -0.09)">
     <defs>
      <path id="DejaVuSans-48" d="M 628 4666 
L 1259 4666 
L 1259 2753 
L 3553 2753 
L 3553 4666 
L 4184 4666 
L 4184 0 
L 3553 0 
L 3553 2222 
L 1259 2222 
L 1259 0 
L 628 0 
L 628 4666 
z
" transform="scale(0.015625)"/>
      <path id="DejaVuSans-46" d="M 628 4666 
L 3309 4666 
L 3309 4134 
L 1259 4134 
L 1259 2759 
L 3109 2759 
L 3109 2228 
L 1259 2228 
L 1259 0 
L 628 0 
L 628 4666 
z
" transform="scale(0.015625)"/>
      <path id="DejaVuSans-53" d="M 3425 4513 
L 3425 3897 
Q 3066 4069 2747 4153 
Q 2428 4238 2131 4238 
Q 1616 4238 1336 4038 
Q 1056 3838 1056 3469 
Q 1056 3159 1242 3001 
Q 1428 2844 1947 2747 
L 2328 2669 
Q 3034 2534 3370 2195 
Q 3706 1856 3706 1288 
Q 3706 609 3251 259 
Q 2797 -91 1919 -91 
Q 1588 -91 1214 -16 
Q 841 59 441 206 
L 441 856 
Q 825 641 1194 531 
Q 1563 422 1919 422 
Q 2459 422 2753 634 
Q 3047 847 3047 1241 
Q 3047 1584 2836 1778 
Q 2625 1972 2144 2069 
L 1759 2144 
Q 1053 2284 737 2584 
Q 422 2884 422 3419 
Q 422 4038 858 4394 
Q 1294 4750 2059 4750 
Q 2388 4750 2728 4690 
Q 3069 4631 3425 4513 
z
" transform="scale(0.015625)"/>
     </defs>
     <use xlink:href="#DejaVuSans-48"/>
     <use xlink:href="#DejaVuSans-46" x="75.195312"/>
     <use xlink:href="#DejaVuSans-20" x="132.714844"/>
     <use xlink:href="#DejaVuSans-53" x="164.501953"/>
     <use xlink:href="#DejaVuSans-70" x="227.978516"/>
     <use xlink:href="#DejaVuSans-61" x="291.455078"/>
     <use xlink:href="#DejaVuSans-63" x="352.734375"/>
     <use xlink:href="#DejaVuSans-65" x="407.714844"/>
    </g>
   </g>
   <g id="text_9">
    <!-- Reward + Grader -->
    <g style="fill: #1a365d" transform="translate(641.293125 143.155786) scale(0.112 -0.112)">
     <defs>
      <path id="DejaVuSans-Bold-52" d="M 2297 2597 
Q 2675 2597 2839 2737 
Q 3003 2878 3003 3200 
Q 3003 3519 2839 3656 
Q 2675 3794 2297 3794 
L 1791 3794 
L 1791 2597 
L 2297 2597 
z
M 1791 1766 
L 1791 0 
L 588 0 
L 588 4666 
L 2425 4666 
Q 3347 4666 3776 4356 
Q 4206 4047 4206 3378 
Q 4206 2916 3982 2619 
Q 3759 2322 3309 2181 
Q 3556 2125 3751 1926 
Q 3947 1728 4147 1325 
L 4800 0 
L 3519 0 
L 2950 1159 
Q 2778 1509 2601 1637 
Q 2425 1766 2131 1766 
L 1791 1766 
z
" transform="scale(0.015625)"/>
      <path id="DejaVuSans-Bold-77" d="M 225 3500 
L 1313 3500 
L 1900 1088 
L 2491 3500 
L 3425 3500 
L 4013 1113 
L 4603 3500 
L 5691 3500 
L 4769 0 
L 3547 0 
L 2956 2406 
L 2369 0 
L 1147 0 
L 225 3500 
z
" transform="scale(0.015625)"/>
      <path id="DejaVuSans-Bold-64" d="M 2919 2988 
L 2919 4863 
L 4044 4863 
L 4044 0 
L 2919 0 
L 2919 506 
Q 2688 197 2409 53 
Q 2131 -91 1766 -91 
Q 1119 -91 703 423 
Q 288 938 288 1747 
Q 288 2556 703 3070 
Q 1119 3584 1766 3584 
Q 2128 3584 2408 3439 
Q 2688 3294 2919 2988 
z
M 2181 722 
Q 2541 722 2730 984 
Q 2919 1247 2919 1747 
Q 2919 2247 2730 2509 
Q 2541 2772 2181 2772 
Q 1825 2772 1636 2509 
Q 1447 2247 1447 1747 
Q 1447 1247 1636 984 
Q 1825 722 2181 722 
z
" transform="scale(0.015625)"/>
      <path id="DejaVuSans-Bold-47" d="M 4781 347 
Q 4331 128 3847 18 
Q 3363 -91 2847 -91 
Q 1681 -91 1000 561 
Q 319 1213 319 2328 
Q 319 3456 1012 4103 
Q 1706 4750 2913 4750 
Q 3378 4750 3804 4662 
Q 4231 4575 4609 4403 
L 4609 3438 
Q 4219 3659 3833 3768 
Q 3447 3878 3059 3878 
Q 2341 3878 1952 3476 
Q 1563 3075 1563 2328 
Q 1563 1588 1938 1184 
Q 2313 781 3003 781 
Q 3191 781 3352 804 
Q 3513 828 3641 878 
L 3641 1784 
L 2906 1784 
L 2906 2591 
L 4781 2591 
L 4781 347 
z
" transform="scale(0.015625)"/>
     </defs>
     <use xlink:href="#DejaVuSans-Bold-52"/>
     <use xlink:href="#DejaVuSans-Bold-65" x="77.001953"/>
     <use xlink:href="#DejaVuSans-Bold-77" x="144.824219"/>
     <use xlink:href="#DejaVuSans-Bold-61" x="237.207031"/>
     <use xlink:href="#DejaVuSans-Bold-72" x="304.6875"/>
     <use xlink:href="#DejaVuSans-Bold-64" x="354.003906"/>
     <use xlink:href="#DejaVuSans-Bold-20" x="425.585938"/>
     <use xlink:href="#DejaVuSans-Bold-2b" x="460.400391"/>
     <use xlink:href="#DejaVuSans-Bold-20" x="544.189453"/>
     <use xlink:href="#DejaVuSans-Bold-47" x="579.003906"/>
     <use xlink:href="#DejaVuSans-Bold-72" x="661.083984"/>
     <use xlink:href="#DejaVuSans-Bold-61" x="710.400391"/>
     <use xlink:href="#DejaVuSans-Bold-64" x="777.880859"/>
     <use xlink:href="#DejaVuSans-Bold-65" x="849.462891"/>
     <use xlink:href="#DejaVuSans-Bold-72" x="917.285156"/>
    </g>
   </g>
   <g id="text_10">
    <!-- 0.0 to 1.0 with partial -->
    <g style="fill: #2d3748" transform="translate(646.839422 189.81603) scale(0.09 -0.09)">
     <defs>
      <path id="DejaVuSans-30" d="M 2034 4250 
Q 1547 4250 1301 3770 
Q 1056 3291 1056 2328 
Q 1056 1369 1301 889 
Q 1547 409 2034 409 
Q 2525 409 2770 889 
Q 3016 1369 3016 2328 
Q 3016 3291 2770 3770 
Q 2525 4250 2034 4250 
z
M 2034 4750 
Q 2819 4750 3233 4129 
Q 3647 3509 3647 2328 
Q 3647 1150 3233 529 
Q 2819 -91 2034 -91 
Q 1250 -91 836 529 
Q 422 1150 422 2328 
Q 422 3509 836 4129 
Q 1250 4750 2034 4750 
z
" transform="scale(0.015625)"/>
      <path id="DejaVuSans-2e" d="M 684 794 
L 1344 794 
L 1344 0 
L 684 0 
L 684 794 
z
" transform="scale(0.015625)"/>
      <path id="DejaVuSans-77" d="M 269 3500 
L 844 3500 
L 1563 769 
L 2278 3500 
L 2956 3500 
L 3675 769 
L 4391 3500 
L 4966 3500 
L 4050 0 
L 3372 0 
L 2619 2869 
L 1863 0 
L 1184 0 
L 269 3500 
z
" transform="scale(0.015625)"/>
      <path id="DejaVuSans-68" d="M 3513 2113 
L 3513 0 
L 2938 0 
L 2938 2094 
Q 2938 2591 2744 2837 
Q 2550 3084 2163 3084 
Q 1697 3084 1428 2787 
Q 1159 2491 1159 1978 
L 1159 0 
L 581 0 
L 581 4863 
L 1159 4863 
L 1159 2956 
Q 1366 3272 1645 3428 
Q 1925 3584 2291 3584 
Q 2894 3584 3203 3211 
Q 3513 2838 3513 2113 
z
" transform="scale(0.015625)"/>
     </defs>
     <use xlink:href="#DejaVuSans-30"/>
     <use xlink:href="#DejaVuSans-2e" x="63.623047"/>
     <use xlink:href="#DejaVuSans-30" x="95.410156"/>
     <use xlink:href="#DejaVuSans-20" x="159.033203"/>
     <use xlink:href="#DejaVuSans-74" x="190.820312"/>
     <use xlink:href="#DejaVuSans-6f" x="230.029297"/>
     <use xlink:href="#DejaVuSans-20" x="291.210938"/>
     <use xlink:href="#DejaVuSans-31" x="322.998047"/>
     <use xlink:href="#DejaVuSans-2e" x="386.621094"/>
     <use xlink:href="#DejaVuSans-30" x="418.408203"/>
     <use xlink:href="#DejaVuSans-20" x="482.03125"/>
     <use xlink:href="#DejaVuSans-77" x="513.818359"/>
     <use xlink:href="#DejaVuSans-69" x="595.605469"/>
     <use xlink:href="#DejaVuSans-74" x="623.388672"/>
     <use xlink:href="#DejaVuSans-68" x="662.597656"/>
     <use xlink:href="#DejaVuSans-20" x="725.976562"/>
     <use xlink:href="#DejaVuSans-70" x="757.763672"/>
     <use xlink:href="#DejaVuSans-61" x="821.240234"/>
     <use xlink:href="#DejaVuSans-72" x="882.519531"/>
     <use xlink:href="#DejaVuSans-74" x="923.632812"/>
     <use xlink:href="#DejaVuSans-69" x="962.841797"/>
     <use xlink:href="#DejaVuSans-61" x="990.625"/>
     <use xlink:href="#DejaVuSans-6c" x="1051.904297"/>
    </g>
    <!-- credit -->
    <g style="fill: #2d3748" transform="translate(682.560281 200.235991) scale(0.09 -0.09)">
     <use xlink:href="#DejaVuSans-63"/>
     <use xlink:href="#DejaVuSans-72" x="54.980469"/>
     <use xlink:href="#DejaVuSans-65" x="93.84375"/>
     <use xlink:href="#DejaVuSans-64" x="155.367188"/>
     <use xlink:href="#DejaVuSans-69" x="218.84375"/>
     <use xlink:href="#DejaVuSans-74" x="246.626953"/>
    </g>
   </g>
   <g id="text_11">
    <!-- Epoch Log + Policy -->
    <g style="fill: #1a365d" transform="translate(783.020875 136.841261) scale(0.112 -0.112)">
     <defs>
      <path id="DejaVuSans-Bold-68" d="M 4056 2131 
L 4056 0 
L 2931 0 
L 2931 347 
L 2931 1625 
Q 2931 2084 2911 2256 
Q 2891 2428 2841 2509 
Q 2775 2619 2662 2680 
Q 2550 2741 2406 2741 
Q 2056 2741 1856 2470 
Q 1656 2200 1656 1722 
L 1656 0 
L 538 0 
L 538 4863 
L 1656 4863 
L 1656 2988 
Q 1909 3294 2193 3439 
Q 2478 3584 2822 3584 
Q 3428 3584 3742 3212 
Q 4056 2841 4056 2131 
z
" transform="scale(0.015625)"/>
      <path id="DejaVuSans-Bold-4c" d="M 588 4666 
L 1791 4666 
L 1791 909 
L 3903 909 
L 3903 0 
L 588 0 
L 588 4666 
z
" transform="scale(0.015625)"/>
      <path id="DejaVuSans-Bold-50" d="M 588 4666 
L 2584 4666 
Q 3475 4666 3951 4270 
Q 4428 3875 4428 3144 
Q 4428 2409 3951 2014 
Q 3475 1619 2584 1619 
L 1791 1619 
L 1791 0 
L 588 0 
L 588 4666 
z
M 1791 3794 
L 1791 2491 
L 2456 2491 
Q 2806 2491 2997 2661 
Q 3188 2831 3188 3144 
Q 3188 3456 2997 3625 
Q 2806 3794 2456 3794 
L 1791 3794 
z
" transform="scale(0.015625)"/>
      <path id="DejaVuSans-Bold-79" d="M 78 3500 
L 1197 3500 
L 2138 1125 
L 2938 3500 
L 4056 3500 
L 2584 -331 
Q 2363 -916 2067 -1148 
Q 1772 -1381 1288 -1381 
L 641 -1381 
L 641 -647 
L 991 -647 
Q 1275 -647 1404 -556 
Q 1534 -466 1606 -231 
L 1638 -134 
L 78 3500 
z
" transform="scale(0.015625)"/>
     </defs>
     <use xlink:href="#DejaVuSans-Bold-45"/>
     <use xlink:href="#DejaVuSans-Bold-70" x="68.310547"/>
     <use xlink:href="#DejaVuSans-Bold-6f" x="139.892578"/>
     <use xlink:href="#DejaVuSans-Bold-63" x="208.59375"/>
     <use xlink:href="#DejaVuSans-Bold-68" x="267.871094"/>
     <use xlink:href="#DejaVuSans-Bold-20" x="339.0625"/>
     <use xlink:href="#DejaVuSans-Bold-4c" x="373.876953"/>
     <use xlink:href="#DejaVuSans-Bold-6f" x="437.597656"/>
     <use xlink:href="#DejaVuSans-Bold-67" x="506.298828"/>
     <use xlink:href="#DejaVuSans-Bold-20" x="577.880859"/>
     <use xlink:href="#DejaVuSans-Bold-2b" x="612.695312"/>
     <use xlink:href="#DejaVuSans-Bold-20" x="696.484375"/>
     <use xlink:href="#DejaVuSans-Bold-50" x="731.298828"/>
     <use xlink:href="#DejaVuSans-Bold-6f" x="804.589844"/>
     <use xlink:href="#DejaVuSans-Bold-6c" x="873.291016"/>
     <use xlink:href="#DejaVuSans-Bold-69" x="907.568359"/>
     <use xlink:href="#DejaVuSans-Bold-63" x="941.845703"/>
     <use xlink:href="#DejaVuSans-Bold-79" x="1001.123047"/>
    </g>
    <!-- Update -->
    <g style="fill: #1a365d" transform="translate(819.917 149.470311) scale(0.112 -0.112)">
     <defs>
      <path id="DejaVuSans-Bold-55" d="M 588 4666 
L 1791 4666 
L 1791 1869 
Q 1791 1291 1980 1042 
Q 2169 794 2597 794 
Q 3028 794 3217 1042 
Q 3406 1291 3406 1869 
L 3406 4666 
L 4609 4666 
L 4609 1869 
Q 4609 878 4112 393 
Q 3616 -91 2597 -91 
Q 1581 -91 1084 393 
Q 588 878 588 1869 
L 588 4666 
z
" transform="scale(0.015625)"/>
     </defs>
     <use xlink:href="#DejaVuSans-Bold-55"/>
     <use xlink:href="#DejaVuSans-Bold-70" x="81.201172"/>
     <use xlink:href="#DejaVuSans-Bold-64" x="152.783203"/>
     <use xlink:href="#DejaVuSans-Bold-61" x="224.365234"/>
     <use xlink:href="#DejaVuSans-Bold-74" x="291.845703"/>
     <use xlink:href="#DejaVuSans-Bold-65" x="339.648438"/>
    </g>
   </g>
   <g id="text_12">
    <!-- Learning log and policy -->
    <g style="fill: #2d3748" transform="translate(790.33275 189.81603) scale(0.09 -0.09)">
     <defs>
      <path id="DejaVuSans-4c" d="M 628 4666 
L 1259 4666 
L 1259 531 
L 3531 531 
L 3531 0 
L 628 0 
L 628 4666 
z
" transform="scale(0.015625)"/>
      <path id="DejaVuSans-67" d="M 2906 1791 
Q 2906 2416 2648 2759 
Q 2391 3103 1925 3103 
Q 1463 3103 1205 2759 
Q 947 2416 947 1791 
Q 947 1169 1205 825 
Q 1463 481 1925 481 
Q 2391 481 2648 825 
Q 2906 1169 2906 1791 
z
M 3481 434 
Q 3481 -459 3084 -895 
Q 2688 -1331 1869 -1331 
Q 1566 -1331 1297 -1286 
Q 1028 -1241 775 -1147 
L 775 -588 
Q 1028 -725 1275 -790 
Q 1522 -856 1778 -856 
Q 2344 -856 2625 -561 
Q 2906 -266 2906 331 
L 2906 616 
Q 2728 306 2450 153 
Q 2172 0 1784 0 
Q 1141 0 747 490 
Q 353 981 353 1791 
Q 353 2603 747 3093 
Q 1141 3584 1784 3584 
Q 2172 3584 2450 3431 
Q 2728 3278 2906 2969 
L 2906 3500 
L 3481 3500 
L 3481 434 
z
" transform="scale(0.015625)"/>
     </defs>
     <use xlink:href="#DejaVuSans-4c"/>
     <use xlink:href="#DejaVuSans-65" x="53.962891"/>
     <use xlink:href="#DejaVuSans-61" x="115.486328"/>
     <use xlink:href="#DejaVuSans-72" x="176.765625"/>
     <use xlink:href="#DejaVuSans-6e" x="216.128906"/>
     <use xlink:href="#DejaVuSans-69" x="279.507812"/>
     <use xlink:href="#DejaVuSans-6e" x="307.291016"/>
     <use xlink:href="#DejaVuSans-67" x="370.669922"/>
     <use xlink:href="#DejaVuSans-20" x="434.146484"/>
     <use xlink:href="#DejaVuSans-6c" x="465.933594"/>
     <use xlink:href="#DejaVuSans-6f" x="493.716797"/>
     <use xlink:href="#DejaVuSans-67" x="554.898438"/>
     <use xlink:href="#DejaVuSans-20" x="618.375"/>
     <use xlink:href="#DejaVuSans-61" x="650.162109"/>
     <use xlink:href="#DejaVuSans-6e" x="711.441406"/>
     <use xlink:href="#DejaVuSans-64" x="774.820312"/>
     <use xlink:href="#DejaVuSans-20" x="838.296875"/>
     <use xlink:href="#DejaVuSans-70" x="870.083984"/>
     <use xlink:href="#DejaVuSans-6f" x="933.560547"/>
     <use xlink:href="#DejaVuSans-6c" x="994.742188"/>
     <use xlink:href="#DejaVuSans-69" x="1022.525391"/>
     <use xlink:href="#DejaVuSans-63" x="1050.308594"/>
     <use xlink:href="#DejaVuSans-79" x="1105.289062"/>
    </g>
    <!-- update -->
    <g style="fill: #2d3748" transform="translate(826.879078 200.235991) scale(0.09 -0.09)">
     <use xlink:href="#DejaVuSans-75"/>
     <use xlink:href="#DejaVuSans-70" x="63.378906"/>
     <use xlink:href="#DejaVuSans-64" x="126.855469"/>
     <use xlink:href="#DejaVuSans-61" x="190.332031"/>
     <use xlink:href="#DejaVuSans-74" x="251.611328"/>
     <use xlink:href="#DejaVuSans-65" x="290.820312"/>
    </g>
   </g>
   <g id="text_13">
    <!-- Email Triage Workflow -->
    <g style="fill: #1a365d" transform="translate(25.614 32.92416) scale(0.15 -0.15)">
     <defs>
      <path id="DejaVuSans-Bold-57" d="M 191 4666 
L 1344 4666 
L 2150 1275 
L 2950 4666 
L 4109 4666 
L 4909 1275 
L 5716 4666 
L 6859 4666 
L 5759 0 
L 4372 0 
L 3525 3547 
L 2688 0 
L 1300 0 
L 191 4666 
z
" transform="scale(0.015625)"/>
      <path id="DejaVuSans-Bold-66" d="M 2841 4863 
L 2841 4128 
L 2222 4128 
Q 1984 4128 1890 4042 
Q 1797 3956 1797 3744 
L 1797 3500 
L 2753 3500 
L 2753 2700 
L 1797 2700 
L 1797 0 
L 678 0 
L 678 2700 
L 122 2700 
L 122 3500 
L 678 3500 
L 678 3744 
Q 678 4316 997 4589 
Q 1316 4863 1984 4863 
L 2841 4863 
z
" transform="scale(0.015625)"/>
     </defs>
     <use xlink:href="#DejaVuSans-Bold-45"/>
     <use xlink:href="#DejaVuSans-Bold-6d" x="68.310547"/>
     <use xlink:href="#DejaVuSans-Bold-61" x="172.509766"/>
     <use xlink:href="#DejaVuSans-Bold-69" x="239.990234"/>
     <use xlink:href="#DejaVuSans-Bold-6c" x="274.267578"/>
     <use xlink:href="#DejaVuSans-Bold-20" x="308.544922"/>
     <use xlink:href="#DejaVuSans-Bold-54" x="343.359375"/>
     <use xlink:href="#DejaVuSans-Bold-72" x="400.572266"/>
     <use xlink:href="#DejaVuSans-Bold-69" x="449.888672"/>
     <use xlink:href="#DejaVuSans-Bold-61" x="484.166016"/>
     <use xlink:href="#DejaVuSans-Bold-67" x="551.646484"/>
     <use xlink:href="#DejaVuSans-Bold-65" x="623.228516"/>
     <use xlink:href="#DejaVuSans-Bold-20" x="691.050781"/>
     <use xlink:href="#DejaVuSans-Bold-57" x="725.865234"/>
     <use xlink:href="#DejaVuSans-Bold-6f" x="832.542969"/>
     <use xlink:href="#DejaVuSans-Bold-72" x="901.244141"/>
     <use xlink:href="#DejaVuSans-Bold-6b" x="950.560547"/>
     <use xlink:href="#DejaVuSans-Bold-66" x="1017.064453"/>
     <use xlink:href="#DejaVuSans-Bold-6c" x="1060.570312"/>
     <use xlink:href="#DejaVuSans-Bold-6f" x="1094.847656"/>
     <use xlink:href="#DejaVuSans-Bold-77" x="1163.548828"/>
    </g>
   </g>
   <g id="text_14">
    <!-- HF Space-assisted support triage with deterministic reward feedback -->
    <g style="fill: #2d3748" transform="translate(25.614 52.21728) scale(0.1 -0.1)">
     <defs>
      <path id="DejaVuSans-6d" d="M 3328 2828 
Q 3544 3216 3844 3400 
Q 4144 3584 4550 3584 
Q 5097 3584 5394 3201 
Q 5691 2819 5691 2113 
L 5691 0 
L 5113 0 
L 5113 2094 
Q 5113 2597 4934 2840 
Q 4756 3084 4391 3084 
Q 3944 3084 3684 2787 
Q 3425 2491 3425 1978 
L 3425 0 
L 2847 0 
L 2847 2094 
Q 2847 2600 2669 2842 
Q 2491 3084 2119 3084 
Q 1678 3084 1418 2786 
Q 1159 2488 1159 1978 
L 1159 0 
L 581 0 
L 581 3500 
L 1159 3500 
L 1159 2956 
Q 1356 3278 1631 3431 
Q 1906 3584 2284 3584 
Q 2666 3584 2933 3390 
Q 3200 3197 3328 2828 
z
" transform="scale(0.015625)"/>
      <path id="DejaVuSans-66" d="M 2375 4863 
L 2375 4384 
L 1825 4384 
Q 1516 4384 1395 4259 
Q 1275 4134 1275 3809 
L 1275 3500 
L 2222 3500 
L 2222 3053 
L 1275 3053 
L 1275 0 
L 697 0 
L 697 3053 
L 147 3053 
L 147 3500 
L 697 3500 
L 697 3744 
Q 697 4328 969 4595 
Q 1241 4863 1831 4863 
L 2375 4863 
z
" transform="scale(0.015625)"/>
      <path id="DejaVuSans-62" d="M 3116 1747 
Q 3116 2381 2855 2742 
Q 2594 3103 2138 3103 
Q 1681 3103 1420 2742 
Q 1159 2381 1159 1747 
Q 1159 1113 1420 752 
Q 1681 391 2138 391 
Q 2594 391 2855 752 
Q 3116 1113 3116 1747 
z
M 1159 2969 
Q 1341 3281 1617 3432 
Q 1894 3584 2278 3584 
Q 2916 3584 3314 3078 
Q 3713 2572 3713 1747 
Q 3713 922 3314 415 
Q 2916 -91 2278 -91 
Q 1894 -91 1617 61 
Q 1341 213 1159 525 
L 1159 0 
L 581 0 
L 581 4863 
L 1159 4863 
L 1159 2969 
z
" transform="scale(0.015625)"/>
     </defs>
     <use xlink:href="#DejaVuSans-48"/>
     <use xlink:href="#DejaVuSans-46" x="75.195312"/>
     <use xlink:href="#DejaVuSans-20" x="132.714844"/>
     <use xlink:href="#DejaVuSans-53" x="164.501953"/>
     <use xlink:href="#DejaVuSans-70" x="227.978516"/>
     <use xlink:href="#DejaVuSans-61" x="291.455078"/>
     <use xlink:href="#DejaVuSans-63" x="352.734375"/>
     <use xlink:href="#DejaVuSans-65" x="407.714844"/>
     <use xlink:href="#DejaVuSans-2d" x="469.238281"/>
     <use xlink:href="#DejaVuSans-61" x="505.322266"/>
     <use xlink:href="#DejaVuSans-73" x="566.601562"/>
     <use xlink:href="#DejaVuSans-73" x="618.701172"/>
     <use xlink:href="#DejaVuSans-69" x="670.800781"/>
     <use xlink:href="#DejaVuSans-73" x="698.583984"/>
     <use xlink:href="#DejaVuSans-74" x="750.683594"/>
     <use xlink:href="#DejaVuSans-65" x="789.892578"/>
     <use xlink:href="#DejaVuSans-64" x="851.416016"/>
     <use xlink:href="#DejaVuSans-20" x="914.892578"/>
     <use xlink:href="#DejaVuSans-73" x="946.679688"/>
     <use xlink:href="#DejaVuSans-75" x="998.779297"/>
     <use xlink:href="#DejaVuSans-70" x="1062.158203"/>
     <use xlink:href="#DejaVuSans-70" x="1125.634766"/>
     <use xlink:href="#DejaVuSans-6f" x="1189.111328"/>
     <use xlink:href="#DejaVuSans-72" x="1250.292969"/>
     <use xlink:href="#DejaVuSans-74" x="1291.40625"/>
     <use xlink:href="#DejaVuSans-20" x="1330.615234"/>
     <use xlink:href="#DejaVuSans-74" x="1362.402344"/>
     <use xlink:href="#DejaVuSans-72" x="1401.611328"/>
     <use xlink:href="#DejaVuSans-69" x="1442.724609"/>
     <use xlink:href="#DejaVuSans-61" x="1470.507812"/>
     <use xlink:href="#DejaVuSans-67" x="1531.787109"/>
     <use xlink:href="#DejaVuSans-65" x="1595.263672"/>
     <use xlink:href="#DejaVuSans-20" x="1656.787109"/>
     <use xlink:href="#DejaVuSans-77" x="1688.574219"/>
     <use xlink:href="#DejaVuSans-69" x="1770.361328"/>
     <use xlink:href="#DejaVuSans-74" x="1798.144531"/>
     <use xlink:href="#DejaVuSans-68" x="1837.353516"/>
     <use xlink:href="#DejaVuSans-20" x="1900.732422"/>
     <use xlink:href="#DejaVuSans-64" x="1932.519531"/>
     <use xlink:href="#DejaVuSans-65" x="1995.996094"/>
     <use xlink:href="#DejaVuSans-74" x="2057.519531"/>
     <use xlink:href="#DejaVuSans-65" x="2096.728516"/>
     <use xlink:href="#DejaVuSans-72" x="2158.251953"/>
     <use xlink:href="#DejaVuSans-6d" x="2197.615234"/>
     <use xlink:href="#DejaVuSans-69" x="2295.027344"/>
     <use xlink:href="#DejaVuSans-6e" x="2322.810547"/>
     <use xlink:href="#DejaVuSans-69" x="2386.189453"/>
     <use xlink:href="#DejaVuSans-73" x="2413.972656"/>
     <use xlink:href="#DejaVuSans-74" x="2466.072266"/>
     <use xlink:href="#DejaVuSans-69" x="2505.28125"/>
     <use xlink:href="#DejaVuSans-63" x="2533.064453"/>
     <use xlink:href="#DejaVuSans-20" x="2588.044922"/>
     <use xlink:href="#DejaVuSans-72" x="2619.832031"/>
     <use xlink:href="#DejaVuSans-65" x="2658.695312"/>
     <use xlink:href="#DejaVuSans-77" x="2720.21875"/>
     <use xlink:href="#DejaVuSans-61" x="2802.005859"/>
     <use xlink:href="#DejaVuSans-72" x="2863.285156"/>
     <use xlink:href="#DejaVuSans-64" x="2902.648438"/>
     <use xlink:href="#DejaVuSans-20" x="2966.125"/>
     <use xlink:href="#DejaVuSans-66" x="2997.912109"/>
     <use xlink:href="#DejaVuSans-65" x="3033.117188"/>
     <use xlink:href="#DejaVuSans-65" x="3094.640625"/>
     <use xlink:href="#DejaVuSans-64" x="3156.164062"/>
     <use xlink:href="#DejaVuSans-62" x="3219.640625"/>
     <use xlink:href="#DejaVuSans-61" x="3283.117188"/>
     <use xlink:href="#DejaVuSans-63" x="3344.396484"/>
     <use xlink:href="#DejaVuSans-6b" x="3399.376953"/>
    </g>
   </g>
  </g>
 </g>
 <defs>
  <clipPath id="p488afeeef1">
   <rect x="7.2" y="7.2" width="920.7" height="321.552"/>
  </clipPath>
 </defs>
</svg>
